<?xml version="1.0" encoding="utf-8"?>
<!-- Generator: Adobe Illustrator 18.1.1, SVG Export Plug-In . SVG Version: 6.00 Build 0)  -->
<svg version="1.1" id="Layer_1" xmlns="http://www.w3.org/2000/svg" xmlns:xlink="http://www.w3.org/1999/xlink" x="0px" y="0px"
	 viewBox="-980.3 -95.9 1761.6 933.3" enable-background="new -980.3 -95.9 1761.6 933.3" xml:space="preserve">
<polyline fill="#3C3C3B" points="122.9,837.4 -980.3,-360 -980.3,837.4 "/>
<polyline fill="#3C3C3B" points="-321.8,837.4 781.4,-360 781.4,837.4 "/>
<g>
	<g>
		<path fill="#0071CE" d="M-6.6,292.1l3.6-0.8c0.9-0.2,1.6-0.6,1.9-1.2c0.3-0.5,0.5-1.2,0.4-1.9c-0.1-0.7-0.2-1.5-0.4-2.4
			c-0.2-0.9-0.4-1.6-0.7-2.3c-0.3-0.7-0.7-1.2-1.2-1.6c-0.5-0.3-1.3-0.4-2.2-0.2l-3.6,0.8L-6.6,292.1L-6.6,292.1z M-0.3,285.5
			c0.4,1.8,0.9,3,1.6,3.7c0.7,0.7,1.7,0.8,2.9,0.5c1.3-0.3,2.1-0.9,2.4-1.8c0.3-0.9,0.3-2.2-0.1-4c-0.4-1.8-0.9-3-1.6-3.7
			s-1.7-0.8-2.9-0.5c-1.3,0.3-2.1,0.9-2.4,1.8C-0.8,282.4-0.7,283.7-0.3,285.5L-0.3,285.5z M11.1,281.5l2.4-0.6l-0.1-0.6
			c-0.2-0.9-0.6-1.6-1.2-2.1c-0.6-0.4-1.5-0.5-2.6-0.3c-1.3,0.3-2.1,0.9-2.4,1.7c-0.3,0.9-0.3,2.2,0.2,4c0.3,1.2,0.6,2.1,0.9,2.8
			c0.4,0.7,0.8,1.1,1.4,1.4c0.6,0.2,1.3,0.2,2.3,0c0.5-0.1,1-0.3,1.5-0.6c0.4-0.3,0.7-0.7,0.9-1.3c0.2-0.6,0.2-1.3,0-2.2l-0.2-0.7
			l-2.4,0.6c0.2,0.9,0.3,1.5,0.3,1.9s-0.2,0.6-0.5,0.6c-0.2,0.1-0.5,0-0.6-0.1c-0.2-0.2-0.3-0.5-0.5-1c-0.1-0.5-0.3-1.1-0.5-2
			c-0.2-0.9-0.3-1.5-0.4-2c-0.1-0.5-0.1-0.8,0-1.1c0.1-0.2,0.2-0.4,0.5-0.4c0.2-0.1,0.4,0,0.6,0.2c0.2,0.2,0.3,0.5,0.4,1.1
			L11.1,281.5L11.1,281.5z M24.8,268.7l5.4,23.7l23.7-5.4l14.5,63l-63,14.5l-20-86.7L24.8,268.7L24.8,268.7z M-2,312.2l10.8,47
			l54.5-12.5l-10.8-47L-2,312.2L-2,312.2z M-5.9,283.6l0.5-0.1c0.3-0.1,0.6-0.1,0.8,0c0.2,0.1,0.4,0.4,0.5,0.8
			c0.1,0.4,0.3,1.1,0.5,1.9c0.2,0.9,0.3,1.5,0.4,1.9c0.1,0.4,0,0.8-0.1,0.9c-0.1,0.2-0.3,0.3-0.7,0.4l-0.5,0.1L-5.9,283.6
			L-5.9,283.6z M2.4,284.9c-0.2-0.9-0.3-1.5-0.4-2c-0.1-0.5-0.1-0.8,0-1.1c0.1-0.2,0.2-0.4,0.5-0.4c0.3-0.1,0.5,0,0.6,0.1
			c0.2,0.2,0.3,0.5,0.5,1c0.1,0.5,0.3,1.1,0.5,2s0.3,1.5,0.4,2c0.1,0.5,0.1,0.8,0,1.1c-0.1,0.2-0.2,0.4-0.5,0.4
			c-0.3,0.1-0.5,0-0.6-0.1c-0.2-0.2-0.3-0.5-0.5-1C2.7,286.4,2.6,285.7,2.4,284.9L2.4,284.9z M53,326.5l-0.3,15.1l-4.6,1.1l-3.5-8
			l0.2,8.7l-4.6,1.1L33.2,331l4.5-1l3.6,8.5l-0.3-9.3l3.8-0.9l3.7,8.5l-0.4-9.3L53,326.5L53,326.5z M9.2,336.6l21-4.8l0.5,2l-21,4.8
			L9.2,336.6L9.2,336.6z M7.7,330.4l43.9-10.1l0.5,2L8.2,332.4L7.7,330.4L7.7,330.4z M6.3,324.3l43.9-10.1l0.5,2L6.8,326.3
			L6.3,324.3L6.3,324.3z M4.9,318.1L48.7,308l0.5,2L5.4,320.1L4.9,318.1L4.9,318.1z M10.6,342.7l21-4.8l0.5,2l-21,4.8L10.6,342.7
			L10.6,342.7z M12,348.9l21-4.8l0.5,2l-21,4.8L12,348.9L12,348.9z M27.6,268l25.8,16.1l-21,4.8L27.6,268L27.6,268z"/>
	</g>
	<g>
		<path fill="#3FAE2A" d="M-81,317.3l2.7,0.5l0.1-0.7c0.2-1,0.1-1.9-0.3-2.6c-0.4-0.7-1.3-1.2-2.5-1.4c-1.4-0.3-2.5,0-3.2,0.7
			c-0.7,0.8-1.3,2.1-1.6,4.2c-0.2,1.3-0.3,2.4-0.3,3.3c0.1,0.9,0.3,1.5,0.8,2c0.5,0.5,1.2,0.8,2.3,1c0.6,0.1,1.2,0.1,1.8,0
			c0.6-0.1,1.1-0.4,1.5-0.9c0.4-0.5,0.7-1.2,0.9-2.2l0.1-0.8l-2.7-0.5c-0.2,1-0.3,1.7-0.5,2c-0.2,0.4-0.4,0.5-0.8,0.4
			c-0.3,0-0.5-0.2-0.6-0.4c-0.1-0.2-0.1-0.6-0.1-1.2c0.1-0.5,0.2-1.3,0.3-2.2c0.2-1,0.3-1.7,0.5-2.2c0.1-0.5,0.3-0.9,0.5-1.1
			c0.2-0.2,0.4-0.3,0.7-0.2c0.3,0,0.4,0.2,0.5,0.4c0.1,0.3,0.1,0.7,0,1.3L-81,317.3L-81,317.3z M-70.2,318.5c0.2-1.1,0.1-2-0.4-2.7
			c-0.5-0.6-1.3-1.1-2.5-1.3c-1.2-0.2-2.1-0.1-2.8,0.4c-0.7,0.5-1.1,1.2-1.3,2.3c-0.1,0.9,0,1.7,0.3,2.2c0.4,0.5,0.8,0.9,1.3,1.3
			c0.5,0.3,1,0.6,1.4,0.9c0.4,0.3,0.6,0.7,0.5,1.2c-0.1,0.3-0.2,0.5-0.4,0.7c-0.2,0.2-0.4,0.2-0.7,0.2c-0.3,0-0.5-0.2-0.6-0.4
			c-0.1-0.2-0.2-0.6-0.1-1V322l-2.7-0.5l-0.1,0.4c-0.2,1.1,0,1.9,0.5,2.5c0.5,0.6,1.4,1,2.5,1.1c1.2,0.2,2.2,0.1,3-0.3
			c0.7-0.4,1.2-1.2,1.4-2.3c0.1-1,0-1.7-0.3-2.3c-0.4-0.5-0.8-1-1.4-1.3c-0.6-0.3-1-0.7-1.4-1c-0.4-0.3-0.6-0.7-0.5-1.2
			c0-0.2,0.2-0.5,0.3-0.6c0.2-0.2,0.4-0.2,0.7-0.2c0.3,0.1,0.4,0.2,0.5,0.4c0.1,0.2,0.1,0.5,0,0.8v0.3L-70.2,318.5L-70.2,318.5z
			 M-68.9,326.7l3.6,0.6l4.2-10.4l-3-0.5l-2.6,8l0.3-8.4l-3-0.5L-68.9,326.7L-68.9,326.7z M-44.7,313.3l-4.7,26.4l26.4,4.7
			l-12.6,70.3l-70.2-12.5l17.2-96.6L-44.7,313.3L-44.7,313.3z M-90.8,345.8l-9.4,52.3l60.7,10.9l9.4-52.3L-90.8,345.8L-90.8,345.8z
			 M-72.9,359.6l-0.8,4.6l9.4,1.7l0.8-4.6L-72.9,359.6L-72.9,359.6z M-52.6,367.9l0.8-4.6l-9.4-1.7l-0.8,4.6L-52.6,367.9
			L-52.6,367.9z M-53.8,374.8l0.8-4.6l-9.4-1.7l-0.8,4.6L-53.8,374.8L-53.8,374.8z M-55,381.6l0.8-4.6l-9.4-1.7l-0.8,4.6L-55,381.6
			L-55,381.6z M-56.3,388.5l0.8-4.6l-9.4-1.7l-0.8,4.6L-56.3,388.5L-56.3,388.5z M-57.6,395.4l0.8-4.6l-9.4-1.7l-0.8,4.6
			L-57.6,395.4L-57.6,395.4z M-40.9,370.1l0.8-4.6l-9.4-1.7l-0.8,4.6L-40.9,370.1L-40.9,370.1z M-42.2,376.9l0.8-4.6l-9.4-1.7
			l-0.8,4.6L-42.2,376.9L-42.2,376.9z M-43.4,383.8l0.8-4.6l-9.4-1.7l-0.8,4.6L-43.4,383.8L-43.4,383.8z M-44.6,390.6l0.8-4.6
			l-9.4-1.7l-0.8,4.6L-44.6,390.6L-44.6,390.6z M-45.9,397.5l0.8-4.6l-9.4-1.7l-0.8,4.6L-45.9,397.5L-45.9,397.5z M-75.9,363.8
			l0.8-4.6l-9.4-1.7l-0.8,4.6L-75.9,363.8L-75.9,363.8z M-77.1,370.7l0.8-4.6l-9.4-1.7l-0.8,4.6L-77.1,370.7L-77.1,370.7z
			 M-78.4,377.5l0.8-4.6l-9.4-1.7l-0.8,4.6L-78.4,377.5L-78.4,377.5z M-79.6,384.4l0.8-4.6l-9.4-1.7l-0.8,4.6L-79.6,384.4
			L-79.6,384.4z M-69.2,393.2l0.8-4.6l-9.4-1.7l-0.8,4.6L-69.2,393.2L-69.2,393.2z M-80,386.6l-9.4-1.7l-0.8,4.6l9.4,1.7L-80,386.6
			L-80,386.6z M-76.5,380.1l-0.8,4.6l9.4,1.7l0.8-4.6L-76.5,380.1L-76.5,380.1z M-75.3,373.3l-0.8,4.6l9.4,1.7l0.8-4.6L-75.3,373.3
			L-75.3,373.3z M-74.1,366.4l-0.8,4.6l9.4,1.7l0.8-4.6L-74.1,366.4L-74.1,366.4z M-37.5,363.6l-6.6,36.5l-48.8-8.8l6.6-36.5
			L-37.5,363.6L-37.5,363.6z M-41.7,313.9l19.2,27.5l-23.3-4.1L-41.7,313.9L-41.7,313.9z"/>
	</g>
	<g>
		<path fill="#3FAE2A" d="M-176.2,295l-2.6,4.4l2.6,0.3l1.2-2.6l0.6,2.8l2.6,0.3l-1.7-4.8l2.4-4.3l-2.6-0.3l-1,2.5l-0.5-2.7
			l-2.6-0.3L-176.2,295L-176.2,295z M-171.2,300.3l5.3,0.5l0.2-1.9l-2.9-0.3l0.7-7.2l-2.4-0.2L-171.2,300.3L-171.2,300.3z
			 M-158.9,294.9c0.1-1-0.1-1.7-0.5-2.2c-0.4-0.5-1.1-0.8-2.2-0.9c-1-0.1-1.8,0.1-2.3,0.5s-0.9,1.1-0.9,2c-0.1,0.8,0.1,1.4,0.4,1.8
			c0.3,0.4,0.7,0.7,1.2,1c0.5,0.2,0.9,0.5,1.2,0.7c0.3,0.2,0.5,0.6,0.5,1c0,0.3-0.1,0.5-0.3,0.6c-0.1,0.1-0.3,0.2-0.6,0.2
			c-0.2,0-0.4-0.1-0.5-0.3c-0.1-0.2-0.2-0.5-0.1-0.8v-0.2l-2.3-0.2v0.3c-0.1,0.9,0.1,1.6,0.6,2.1c0.5,0.4,1.2,0.7,2.2,0.8
			c1,0.1,1.9,0,2.4-0.4c0.6-0.4,0.9-1.1,1-2c0.1-0.8-0.1-1.4-0.4-1.9c-0.3-0.4-0.8-0.8-1.2-1c-0.5-0.2-0.9-0.5-1.3-0.7
			c-0.4-0.2-0.5-0.6-0.5-1c0-0.2,0.1-0.4,0.2-0.5c0.1-0.1,0.3-0.2,0.6-0.2c0.2,0,0.4,0.1,0.5,0.3c0.1,0.2,0.1,0.4,0.1,0.7v0.2
			L-158.9,294.9L-158.9,294.9z M-144.3,288.3l-2.2,22.3l22.3,2.2l-6,59.4l-59.3-6l8.2-81.7L-144.3,288.3L-144.3,288.3z
			 M-180.6,318.4l-4.4,44.3l51.2,5.1l4.4-44.3L-180.6,318.4L-180.6,318.4z M-141.2,331.5l-2.6,26.1l-5-0.5l2.6-26.1L-141.2,331.5
			L-141.2,331.5z M-149.8,336.4l-2,20.5l-5-0.5l2-20.5L-149.8,336.4L-149.8,336.4z M-158.4,339.4L-160,356l-5-0.5l1.6-16.6
			L-158.4,339.4L-158.4,339.4z M-167,343.4l-1.2,11.8l-5-0.5l1.2-11.8L-167,343.4L-167,343.4z M-141.8,288.6l17.8,21.7l-19.8-2
			L-141.8,288.6L-141.8,288.6z"/>
	</g>
	<g>
		<path fill="#009FE3" d="M-97.3,193.2l-0.2,2l1.7,0.1l-0.6,7l2.3,0.2l0.6-7l1.7,0.1l0.1-2L-97.3,193.2L-97.3,193.2z M-87,198.5
			l2.2-4.1l-0.2,1.9l1.7,0.1l-0.6,7l2.3,0.2l0.6-7l1.7,0.1l0.2-2l-5.8-0.5l-2.6-0.2l-1,2.5l-0.5-2.6l-2.6-0.2l1.6,4.5l-2.5,4.3
			l2.6,0.2l1.1-2.6l0.7,2.7l2.6,0.2L-87,198.5L-87,198.5z M-64.4,190.5l-1.7,21.9l21.9,1.7l-4.6,58.3l-58.3-4.6l6.5-80.2
			L-64.4,190.5L-64.4,190.5z M-99.5,220.8l-3.5,43.5l50.3,4l3.5-43.5L-99.5,220.8L-99.5,220.8z M-96.5,244.8l40.5,3.2l-0.1,1.8
			l-40.5-3.2L-96.5,244.8L-96.5,244.8z M-96,239.1l40.5,3.2l-0.1,1.8l-40.5-3.2L-96,239.1L-96,239.1z M-95.6,233.4l40.5,3.2
			l-0.1,1.8l-40.5-3.2L-95.6,233.4L-95.6,233.4z M-95.1,227.7l40.5,3.2l-0.1,1.8l-40.5-3.2L-95.1,227.7L-95.1,227.7z M-96.9,250.5
			l40.5,3.2l-0.1,1.8l-40.5-3.2L-96.9,250.5L-96.9,250.5z M-97.4,256.2l40.5,3.2l-0.1,1.8l-40.5-3.2L-97.4,256.2L-97.4,256.2z
			 M-61.9,190.7l17.9,20.9l-19.4-1.5L-61.9,190.7L-61.9,190.7z"/>
	</g>
	<g>
		<path fill="none" d="M-234.6,264.5l65.9-6.3l-5.4-56.9l-65.9,6.3L-234.6,264.5z M-232.7,215.5l53.1-5l0.2,2.4l-53.1,5
			L-232.7,215.5z M-232,223l53.1-5l0.2,2.4l-53.1,5L-232,223z M-231.3,230.5l53.1-5l0.2,2.4l-53.1,5L-231.3,230.5z M-230.6,237.9
			l53.1-5l0.2,2.4l-53.1,5L-230.6,237.9z M-229.9,245.4l53.1-5l0.2,2.4l-53.1,5L-229.9,245.4z M-229.2,252.9l53.1-5l0.2,2.4l-53.1,5
			L-229.2,252.9z"/>
		
			<rect x="-232.8" y="213" transform="matrix(-0.9955 9.451604e-02 -9.451604e-02 -0.9955 -391.1389 446.9259)" fill="#009FE3" width="53.3" height="2.4"/>
		<path fill="#009FE3" d="M-229.5,176.5c-1.2,0.1-2,1-2.5,2.7s-0.6,3.5-0.4,5.4c0.1,0.9,0.4,1.6,0.8,2.2c0.4,0.6,1,0.9,1.6,0.8
			c0.6-0.1,1.2-0.4,1.6-0.9c0.4-0.5,0.8-1.6,1-3.1c0.3-1.6,0.3-3,0.2-4.4c-0.1-0.9-0.3-1.5-0.7-2
			C-228.4,176.7-228.9,176.5-229.5,176.5z"/>
		<polygon fill="#009FE3" points="-198.4,160.3 -195.9,185.6 -170.6,183.3 		"/>
		
			<rect x="-232.1" y="220.5" transform="matrix(-0.9955 9.451604e-02 -9.451604e-02 -0.9955 -389.0229 461.7525)" fill="#009FE3" width="53.3" height="2.4"/>
		
			<rect x="-229.3" y="250.2" transform="matrix(-0.9955 9.451604e-02 -9.451604e-02 -0.9955 -380.5862 520.8589)" fill="#009FE3" width="53.3" height="2.4"/>
		
			<rect x="-231.4" y="227.9" transform="matrix(-0.9955 9.451604e-02 -9.451604e-02 -0.9955 -386.9063 476.579)" fill="#009FE3" width="53.3" height="2.4"/>
		
			<rect x="-230" y="242.8" transform="matrix(-0.9955 9.451604e-02 -9.451604e-02 -0.9955 -382.6742 506.232)" fill="#009FE3" width="53.3" height="2.4"/>
		<path fill="#009FE3" d="M-201.7,160.6l-47.6,4.5l10,105l76.2-7.3l-7.3-76.2l-28.6,2.7L-201.7,160.6z M-237.5,174.2
			c1.8-2.7,4.6-4.2,8.3-4.5c2.2-0.2,4,0,5.5,0.8c1.5,0.7,2.7,1.8,3.8,3.2c1.1,1.4,1.7,3.2,1.9,5.5c0.3,3-0.3,5.4-1.8,7.3
			c-1.5,1.9-3.1,2.9-4.7,3c-1.2,0.1-2-0.4-2.4-1.5c-0.6,0.7-1.1,1.2-1.6,1.5c-0.5,0.3-1,0.5-1.7,0.5c-1.4,0.1-2.6-0.3-3.6-1.3
			c-1-1-1.5-2.5-1.7-4.3c-0.2-2.4,0.2-4.6,1.2-6.7c1-2,2.4-3.1,4.1-3.2c0.7-0.1,1.3,0,1.9,0.3c0.6,0.3,1.1,0.8,1.6,1.4l0.1-1.7
			l2.9-0.3l-0.7,11.7c0,0.3,0,0.4,0,0.5c0,0.4,0.2,0.5,0.6,0.5c0.6-0.1,1.2-0.4,1.8-1c0.6-0.6,1.1-1.5,1.5-2.6s0.5-2.4,0.4-3.9
			c-0.2-2.5-1.2-4.4-2.8-5.7c-1.6-1.4-3.6-1.9-6.1-1.7c-2.8,0.3-5,1.4-6.7,3.5c-1.6,2.1-2.3,4.7-2,8c0.3,3.1,1.4,5.4,3.3,7.2
			c1.9,1.6,4.3,2.3,7.1,2.1c1.3-0.1,2.6-0.5,3.8-1c1.2-0.6,2.3-1.3,3.3-2.3l3-0.3c-1.1,1.7-2.5,3.1-4.3,4.1c-1.8,1-3.6,1.6-5.5,1.8
			c-3.3,0.3-6.2-0.5-8.6-2.5c-2.4-2-3.8-4.8-4.1-8.5C-240.1,180-239.4,176.8-237.5,174.2z M-174,201.3l5.4,56.9l-65.9,6.3l-5.4-56.9
			L-174,201.3z"/>
		
			<rect x="-230.7" y="235.4" transform="matrix(-0.9955 9.451604e-02 -9.451604e-02 -0.9955 -384.7903 491.4056)" fill="#009FE3" width="53.3" height="2.4"/>
	</g>
	<path fill="#95D600" d="M-295.4,313.4l1.6,6.3c0.1,0.4,0.1,0.7,0,0.9c-0.1,0.2-0.2,0.3-0.4,0.3c-0.2,0.1-0.3,0-0.5-0.1
		c-0.1-0.1-0.3-0.4-0.4-0.8l-0.1-0.4l-2,0.5v0.2c0.2,0.9,0.6,1.5,1.1,1.9c0.5,0.4,1.3,0.4,2.2,0.2c0.9-0.2,1.6-0.6,1.9-1.2
		c0.4-0.6,0.4-1.4,0.1-2.4l-1.5-6L-295.4,313.4L-295.4,313.4z M-290,321.2l2.2-0.6l-0.8-3.3l0.8-0.2c0.9-0.2,1.6-0.6,1.9-1.2
		c0.4-0.6,0.4-1.3,0.2-2.2c-0.2-0.8-0.6-1.4-1.1-1.7c-0.5-0.3-1.2-0.5-2.1-0.3l-3.4,0.9L-290,321.2L-290,321.2z M-281.4,315.6
		l0.8-0.2c0.2,0.7,0.2,1.2,0.2,1.5c-0.1,0.3-0.2,0.4-0.5,0.5c-0.2,0.1-0.4,0-0.6-0.1c-0.2-0.1-0.3-0.4-0.4-0.9
		c-0.1-0.4-0.3-1-0.5-1.8c-0.2-0.8-0.3-1.4-0.4-1.8c-0.1-0.4-0.1-0.8,0-1s0.2-0.3,0.5-0.4c0.1,0,0.3,0,0.4,0s0.2,0.1,0.3,0.2
		c0.1,0.1,0.1,0.2,0.2,0.4c0.1,0.2,0.1,0.4,0.2,0.6l2.2-0.6c-0.3-1-0.7-1.7-1.3-2c-0.6-0.3-1.3-0.4-2.1-0.2c-0.9,0.2-1.5,0.6-1.9,1
		c-0.4,0.5-0.6,1.1-0.6,1.8c0,0.7,0.1,1.5,0.4,2.5c0.2,1,0.5,1.8,0.8,2.4c0.3,0.6,0.6,1.1,1.1,1.3c0.5,0.2,1,0.3,1.8,0.1
		c0.4-0.1,0.7-0.3,1.1-0.5c0.3-0.2,0.5-0.5,0.6-0.9l0.3,0.7l1.5-0.4l-1.2-4.7l-2.9,0.7V315.6L-281.4,315.6z M-268.4,301l5.4,21.3
		l21.3-5.4l14.5,56.7l-56.6,14.5l-20-78L-268.4,301L-268.4,301z M-291.7,340.9l10.8,42.3l48.9-12.5l-10.8-42.3L-291.7,340.9
		L-291.7,340.9z M-289.6,313.6l0.4-0.1c0.3-0.1,0.5,0,0.7,0.1c0.2,0.1,0.3,0.4,0.4,0.7c0.1,0.4,0.1,0.6,0,0.9
		c-0.1,0.2-0.3,0.3-0.6,0.4l-0.4,0.1L-289.6,313.6L-289.6,313.6z M-246.2,337.6l6.9,26.6l-38.1,9.8l-6.9-26.6L-246.2,337.6
		L-246.2,337.6z M-247.3,339.5l-35.2,9l6.1,23.6l35.2-9L-247.3,339.5L-247.3,339.5z M-278.8,354c-0.4-1.5,0.5-3,2-3.4
		c1.5-0.4,3,0.5,3.4,2c0.4,1.5-0.5,3-2,3.4C-276.9,356.4-278.4,355.5-278.8,354L-278.8,354z M-257.9,353.9l1.4-5.4l12.6,13.4l-31,8
		l4.6-17.9l3.8,4.1l2.2-8.7L-257.9,353.9L-257.9,353.9z M-265.9,300.4l23.6,14l-18.9,4.8L-265.9,300.4L-265.9,300.4z"/>
	<path fill="#95D600" d="M99.9,195.8l-0.9,8.1c-0.1,0.5-0.2,0.9-0.3,1c-0.2,0.2-0.3,0.2-0.6,0.2c-0.2,0-0.4-0.1-0.5-0.3
		c-0.1-0.2-0.1-0.6-0.1-1.1l0.1-0.5l-2.6-0.3v0.2c-0.1,1.2,0,2.1,0.5,2.7c0.5,0.7,1.3,1.1,2.5,1.2c1.2,0.1,2.1,0,2.8-0.5
		c0.7-0.5,1.1-1.4,1.2-2.7l0.9-7.7L99.9,195.8L99.9,195.8z M102.5,207.4l2.9,0.3l0.5-4.2l1,0.1c1.2,0.1,2.1-0.1,2.8-0.6
		c0.7-0.5,1.1-1.3,1.2-2.5c0.1-1,0-1.8-0.5-2.5c-0.4-0.7-1.2-1.1-2.3-1.3l-4.3-0.5L102.5,207.4L102.5,207.4z M115.3,204.6l1,0.1
		c-0.1,0.9-0.3,1.6-0.5,1.9c-0.2,0.3-0.5,0.4-0.8,0.4s-0.5-0.2-0.6-0.4c-0.1-0.2-0.2-0.6-0.1-1.2c0.1-0.6,0.1-1.3,0.2-2.3
		c0.1-1,0.2-1.8,0.3-2.3c0.1-0.5,0.2-0.9,0.4-1.1c0.2-0.2,0.4-0.3,0.7-0.2c0.2,0,0.3,0.1,0.4,0.2s0.2,0.2,0.2,0.4
		c0,0.2,0.1,0.3,0.1,0.6c0,0.2,0,0.5,0,0.7l2.8,0.3c0.1-1.3-0.1-2.3-0.7-3c-0.6-0.7-1.4-1-2.4-1.1c-1.1-0.1-2,0-2.7,0.4
		c-0.6,0.4-1.1,1-1.4,1.8c-0.3,0.8-0.5,1.9-0.7,3.1c-0.2,1.2-0.2,2.3-0.2,3.1c0,0.9,0.3,1.6,0.7,2.1c0.4,0.5,1.1,0.8,2,0.9
		c0.5,0.1,1,0,1.4-0.1c0.5-0.1,0.8-0.4,1.1-0.8v1l1.9,0.2l0.7-6.1l-3.7-0.4L115.3,204.6L115.3,204.6z M136.8,193.3l-3.1,27.3
		l27.3,3.1l-8.3,72.6l-72.5-8.3l11.3-99.9L136.8,193.3L136.8,193.3z M91.8,229.7l-6.2,54.2l62.7,7.2l6.2-54.2L91.8,229.7L91.8,229.7
		z M106.4,198.7l0.5,0.1c0.4,0,0.6,0.2,0.8,0.4c0.2,0.2,0.2,0.6,0.2,1c-0.1,0.5-0.2,0.8-0.4,1s-0.5,0.3-0.9,0.2l-0.5-0.1
		L106.4,198.7L106.4,198.7z M146.5,246l-3.8,34.1l-48.9-5.5l3.8-34.1L146.5,246L146.5,246z M144.5,247.7l-45.2-5.1l-3.4,30.3
		L141,278L144.5,247.7L144.5,247.7z M101.1,250.7c0.2-1.9,1.9-3.3,3.9-3.1c1.9,0.2,3.3,1.9,3.1,3.9c-0.2,1.9-1.9,3.3-3.9,3.1
		C102.2,254.4,100.9,252.7,101.1,250.7L101.1,250.7z M125.6,259.8l4-5.7l8.8,21.3l-39.7-4.5L112,252l2.7,6.6l6.5-9.2L125.6,259.8
		L125.6,259.8z M140,193.8l21.4,26.8l-24.1-2.7L140,193.8L140,193.8z"/>
	<g>
		<g>
			<g>
				<path fill="#CBBBA0" stroke="#706F6F" stroke-width="5" stroke-miterlimit="10" d="M415.7,837.4H114c-5.2,0-9.4-4.2-9.4-9.4
					v-8.1c0-5.2,4.2-9.4,9.4-9.4h301.7c5.2,0,9.4,4.2,9.4,9.4v8.1C425.1,833.1,420.9,837.4,415.7,837.4z"/>
				<g>
					<circle fill="#CBBBA0" stroke="#706F6F" stroke-width="2" stroke-miterlimit="10" cx="120.6" cy="823.5" r="8.7"/>
					<circle fill="#CBBBA0" stroke="#706F6F" stroke-width="2" stroke-miterlimit="10" cx="192.6" cy="823.5" r="8.7"/>
					<circle fill="#CBBBA0" stroke="#706F6F" stroke-width="2" stroke-miterlimit="10" cx="264.7" cy="823.5" r="8.7"/>
					<circle fill="#CBBBA0" stroke="#706F6F" stroke-width="2" stroke-miterlimit="10" cx="336.8" cy="823.5" r="8.7"/>
					<circle fill="#CBBBA0" stroke="#706F6F" stroke-width="2" stroke-miterlimit="10" cx="408.9" cy="823.5" r="8.7"/>
				</g>
			</g>
			<path fill="#37589B" d="M294.3,808.3h-40.2c-5.2,0-9.4-4.2-9.4-9.4v-40.2c0-5.2,4.2-9.4,9.4-9.4h40.2c5.2,0,9.4,4.2,9.4,9.4v40.2
				C303.7,804.1,299.5,808.3,294.3,808.3z"/>
			<path fill="#FFFFFF" d="M282.7,778.8h-5.5c0,8.8,0,19.8,0,19.8h-8.2c0,0,0-10.8,0-19.8H265v-6.9h3.9v-4.5c0-3.2,1.5-8.2,8.2-8.2
				h6.1v6.8c0,0-3.6,0-4.5,0c-0.7,0-1.8,0.4-1.8,1.9v4.1h6.2L282.7,778.8z"/>
			<g>
				<path fill="#3AAAE1" d="M392.4,759.5c0,0.5,0,1.1,0,1.5c0,15.5-11.9,33.5-33.5,33.5c-6.7,0-12.8-2-18.1-5.3
					c0.9,0.1,1.9,0.1,2.8,0.1c5.5,0,10.6-1.9,14.6-5.1c-5.2-0.1-9.5-3.5-11.1-8.2c0.7,0.1,1.4,0.2,2.2,0.2c1.1,0,2.1-0.1,3.1-0.5
					c-5.4-1.1-9.4-5.9-9.4-11.5v-0.1c1.6,0.9,3.4,1.4,5.3,1.5c-3.2-2.1-5.3-5.8-5.3-9.8c0-2.1,0.6-4.2,1.6-5.9
					c5.8,7.2,14.5,11.9,24.4,12.4c-0.2-0.8-0.4-1.8-0.4-2.7c0-6.5,5.3-11.8,11.8-11.8c3.4,0,6.5,1.4,8.6,3.8
					c2.7-0.5,5.2-1.5,7.5-2.8c-0.9,2.7-2.7,5.1-5.2,6.5c2.4-0.2,4.7-0.9,6.8-1.9C396.7,755.7,394.7,757.9,392.4,759.5z"/>
			</g>
			<g>
				<g>
					
						<line fill="none" stroke="#575756" stroke-width="3" stroke-linecap="round" stroke-linejoin="round" stroke-miterlimit="10" x1="331.4" y1="807.3" x2="407.7" y2="807.3"/>
					
						<path fill="none" stroke="#575756" stroke-width="3" stroke-linecap="round" stroke-linejoin="round" stroke-miterlimit="10" d="
						M337.3,807.3v-58.3c0,0-1.6-31.2,32.2-31.2"/>
					
						<path fill="none" stroke="#575756" stroke-width="3" stroke-linecap="round" stroke-linejoin="round" stroke-miterlimit="10" d="
						M353.4,807.3v-60.3c0,0-0.1-29.2,16.1-29.2"/>
					
						<path fill="none" stroke="#575756" stroke-width="3" stroke-linecap="round" stroke-linejoin="round" stroke-miterlimit="10" d="
						M401.8,807.3v-58.3c0,0,1.6-31.2-32.2-31.2"/>
					
						<path fill="none" stroke="#575756" stroke-width="3" stroke-linecap="round" stroke-linejoin="round" stroke-miterlimit="10" d="
						M385.7,807.3v-60.3c0,0,0.1-29.2-16.1-29.2"/>
					
						<line fill="none" stroke="#575756" stroke-width="3" stroke-linecap="round" stroke-linejoin="round" stroke-miterlimit="10" x1="369.5" y1="807.3" x2="369.5" y2="712.7"/>
				</g>
				
					<circle fill="none" stroke="#575756" stroke-width="3" stroke-linecap="round" stroke-linejoin="round" stroke-miterlimit="10" cx="369.5" cy="709" r="5.1"/>
				
					<line fill="none" stroke="#575756" stroke-width="3" stroke-linecap="round" stroke-linejoin="round" stroke-miterlimit="10" x1="334" y1="745.9" x2="405.1" y2="745.9"/>
			</g>
			<g>
				<g>
					
						<rect x="121.1" y="733.3" transform="matrix(-0.9763 -0.2162 0.2162 -0.9763 162.6217 1541.7886)" fill="#8E7015" width="89.2" height="57.4"/>
					
						<rect x="125.6" y="726.7" transform="matrix(-0.9763 -0.2162 0.2162 -0.9763 183.3791 1480.9156)" fill="#7F6114" width="94.1" height="7.4"/>
					
						<rect x="111.6" y="790" transform="matrix(-0.9763 -0.2162 0.2162 -0.9763 142.0103 1602.9584)" fill="#7F6114" width="94.1" height="7.4"/>
					<polygon fill="#7F6114" points="217.9,744.3 112.1,787.2 113.6,780 219.5,737 					"/>
				</g>
				<g>
					<g>
						<polygon fill="#EDEDED" points="179.7,765.2 173.3,767.5 167.9,778.7 193.3,790.8 200.7,775.3 						"/>
						<polygon fill="#BE1622" points="179.7,765.2 179,766.6 198.8,776 192.6,788.8 169.9,778 174.6,768.1 173.3,767.5 167.9,778.7 
							193.3,790.8 200.7,775.3 						"/>
					</g>
					<polygon fill="#C6C6C6" points="177.6,769.6 179.7,765.2 173.3,767.5 					"/>
				</g>
			</g>
		</g>
	</g>
	<g>
		<rect x="-460.9" y="747.2" fill="#706F6F" width="73.8" height="50.8"/>
		<rect x="-460.9" y="798" fill="#9D9D9C" width="73.8" height="39.4"/>
		<g>
			<g>
				<defs>
					<path id="SVGID_1_" d="M-330,788.1h-188.2c-5.2,0-9.4-4.2-9.4-9.4V645.9c0-5.2,4.2-9.4,9.4-9.4H-330c5.2,0,9.4,4.2,9.4,9.4
						v132.8C-320.6,783.9-324.8,788.1-330,788.1z"/>
				</defs>
				<clipPath id="SVGID_2_">
					<use xlink:href="#SVGID_1_"  overflow="visible"/>
				</clipPath>
				<rect x="-527.6" y="636.6" clip-path="url(#SVGID_2_)" fill="#CCCCCC" width="207" height="124.3"/>
			</g>
			<g>
				<defs>
					<path id="SVGID_3_" d="M-330,788.1h-188.2c-5.2,0-9.4-4.2-9.4-9.4V645.9c0-5.2,4.2-9.4,9.4-9.4H-330c5.2,0,9.4,4.2,9.4,9.4
						v132.8C-320.6,783.9-324.8,788.1-330,788.1z"/>
				</defs>
				<clipPath id="SVGID_4_">
					<use xlink:href="#SVGID_3_"  overflow="visible"/>
				</clipPath>
				<rect x="-520.9" y="644.9" clip-path="url(#SVGID_4_)" fill="#F6F6F6" width="193.5" height="116"/>
			</g>
			<g>
				<defs>
					<path id="SVGID_5_" d="M-330,788.1h-188.2c-5.2,0-9.4-4.2-9.4-9.4V645.9c0-5.2,4.2-9.4,9.4-9.4H-330c5.2,0,9.4,4.2,9.4,9.4
						v132.8C-320.6,783.9-324.8,788.1-330,788.1z"/>
				</defs>
				<clipPath id="SVGID_6_">
					<use xlink:href="#SVGID_5_"  overflow="visible"/>
				</clipPath>
				<rect x="-527.6" y="760.9" clip-path="url(#SVGID_6_)" fill="#9D9D9C" width="207" height="27.2"/>
			</g>
			<g>
				<defs>
					<path id="SVGID_7_" d="M-330,788.1h-188.2c-5.2,0-9.4-4.2-9.4-9.4V645.9c0-5.2,4.2-9.4,9.4-9.4H-330c5.2,0,9.4,4.2,9.4,9.4
						v132.8C-320.6,783.9-324.8,788.1-330,788.1z"/>
				</defs>
				<clipPath id="SVGID_8_">
					<use xlink:href="#SVGID_7_"  overflow="visible"/>
				</clipPath>
				<g clip-path="url(#SVGID_8_)">
					<g>
						<path fill="#3AAA35" d="M-459.5,682.9c3.9,0,7.1,3.2,7.1,7.1v40.8c0,3.9-3.2,7.1-7.1,7.1h-40.8c-3.9,0-7.1-3.2-7.1-7.1V690
							c0-3.9,3.2-7.1,7.1-7.1H-459.5 M-459.5,680.6h-40.8c-5.2,0-9.4,4.2-9.4,9.4v40.8c0,5.2,4.2,9.4,9.4,9.4h40.8
							c5.2,0,9.4-4.2,9.4-9.4V690C-450.1,684.8-454.3,680.6-459.5,680.6L-459.5,680.6z"/>
					</g>
					<g>
						<path fill="#E30613" d="M-347.8,682.9c3.9,0,7.1,3.2,7.1,7.1v40.8c0,3.9-3.2,7.1-7.1,7.1h-40.8c-3.9,0-7.1-3.2-7.1-7.1V690
							c0-3.9,3.2-7.1,7.1-7.1H-347.8 M-347.8,680.6h-40.8c-5.2,0-9.4,4.2-9.4,9.4v40.8c0,5.2,4.2,9.4,9.4,9.4h40.8
							c5.2,0,9.4-4.2,9.4-9.4V690C-338.4,684.8-342.7,680.6-347.8,680.6L-347.8,680.6z"/>
					</g>
					<g>
						<circle fill="#3AAA35" cx="-479.8" cy="710.5" r="17.4"/>
						<path fill="#FFFFFF" d="M-481.2,721.6c-0.7,0-1.3-0.4-1.6-0.9l-5.6-9.9c-0.5-0.9-0.2-2.1,0.7-2.6c0.9-0.5,2.1-0.2,2.6,0.7
							l3.8,6.7l6.9-15.2c0.5-0.9,1.5-1.4,2.5-0.9c0.9,0.5,1.4,1.5,0.9,2.5l-8.5,18.6C-479.8,721.2-480.5,721.6-481.2,721.6
							L-481.2,721.6z"/>
					</g>
					<g>
						<path fill="#BE1622" d="M-364.6,727.2h-7.5c-7.2,0-12.9-5.9-12.9-12.9v-7.5c0-7.2,5.9-12.9,12.9-12.9h7.5
							c7.2,0,12.9,5.9,12.9,12.9v7.5C-351.5,721.3-357.4,727.2-364.6,727.2z"/>
						<g>
							<path fill="#FFFFFF" d="M-359.4,721.3c-0.5,0-0.9-0.2-1.3-0.6l-17.8-17.8c-0.7-0.7-0.7-2,0-2.7c0.7-0.7,2-0.7,2.7,0L-358,718
								c0.7,0.7,0.7,2,0,2.7C-358.3,721-358.9,721.3-359.4,721.3z"/>
							<path fill="#FFFFFF" d="M-377.1,721.3c-0.5,0-0.9-0.2-1.3-0.6c-0.7-0.7-0.7-2,0-2.7l17.8-17.8c0.7-0.7,2-0.7,2.7,0
								c0.7,0.7,0.7,2,0,2.7l-17.8,17.8C-376.2,721-376.7,721.3-377.1,721.3z"/>
						</g>
					</g>
				</g>
			</g>
			<g>
				<defs>
					<path id="SVGID_9_" d="M-330,788.1h-188.2c-5.2,0-9.4-4.2-9.4-9.4V645.9c0-5.2,4.2-9.4,9.4-9.4H-330c5.2,0,9.4,4.2,9.4,9.4
						v132.8C-320.6,783.9-324.8,788.1-330,788.1z"/>
				</defs>
				<clipPath id="SVGID_10_">
					<use xlink:href="#SVGID_9_"  overflow="visible"/>
				</clipPath>
				<g clip-path="url(#SVGID_10_)">
					<circle fill="#9D9D9C" cx="-424.1" cy="698.2" r="13.3"/>
					<circle fill="#CCCCCC" cx="-424.1" cy="698.2" r="6.6"/>
					<polygon fill="#9D9D9C" points="-429.3,687 -424.1,679.8 -418.9,687 					"/>
				</g>
			</g>
			<g>
				<defs>
					<path id="SVGID_11_" d="M-330,788.1h-188.2c-5.2,0-9.4-4.2-9.4-9.4V645.9c0-5.2,4.2-9.4,9.4-9.4H-330c5.2,0,9.4,4.2,9.4,9.4
						v132.8C-320.6,783.9-324.8,788.1-330,788.1z"/>
				</defs>
				<clipPath id="SVGID_12_">
					<use xlink:href="#SVGID_11_"  overflow="visible"/>
				</clipPath>
				<g clip-path="url(#SVGID_12_)">
					<circle fill="#9D9D9C" cx="-424.1" cy="736.8" r="13.3"/>
					<circle fill="#CCCCCC" cx="-424.1" cy="736.8" r="6.6"/>
					<polygon fill="#9D9D9C" points="-429.3,725.6 -424.1,718.3 -418.9,725.6 					"/>
				</g>
			</g>
		</g>
		<g>
			<text transform="matrix(1 0 0 1 -508.4897 665.8298)" fill="#3AAA35" font-family="'Courier-Bold'" font-size="14.8168">approve</text>
			<text transform="matrix(1 0 0 1 -446.2665 665.8298)" fill="#878787" font-family="'Courier-Bold'" font-size="14.8168">/</text>
			<text transform="matrix(1 0 0 1 -437.3286 665.8298)" fill="#36A9E1" font-family="'Courier-Bold'" font-size="14.8168">tune</text>
			<text transform="matrix(1 0 0 1 -401.8056 665.8298)" fill="#878787" font-family="'Courier-Bold'" font-size="14.8168">/</text>
			<text transform="matrix(1 0 0 1 -392.8578 665.8298)" fill="#E30613" font-family="'Courier-Bold'" font-size="14.8168">reject</text>
		</g>
	</g>
	<g>
		<g>
			<g>
				<rect x="112.2" y="690.3" fill="#706F6F" width="6.6" height="108.7"/>
				<rect x="37.8" y="727.3" fill="#9D9D9C" width="74.5" height="64.6"/>
				<rect x="37.9" y="695.6" fill="#C6C6C6" width="74.5" height="31.6"/>
			</g>
			<rect x="37.8" y="723.9" fill="#FFFFFF" width="73.9" height="13.5"/>
		</g>
		<g>
			<g>
				<g>
					<g>
						<rect x="-130.1" y="524.7" fill="#9D9D9C" width="127.8" height="190.8"/>
						<rect x="-192.7" y="524.7" fill="#C6C6C6" width="62.6" height="190.8"/>
					</g>
					<rect x="-123.6" y="524.7" fill="#FFFFFF" width="17.8" height="190.7"/>
				</g>
				<rect x="-192.7" y="513.2" fill="#706F6F" width="190.3" height="11.5"/>
				<g>
					<ellipse fill="#9D9D9C" cx="-192.7" cy="518.9" rx="2.9" ry="2.7"/>
					<ellipse fill="#9D9D9C" cx="-168.9" cy="518.9" rx="2.9" ry="2.7"/>
					<ellipse fill="#9D9D9C" cx="-145" cy="518.9" rx="2.9" ry="2.7"/>
					<ellipse fill="#9D9D9C" cx="-121.3" cy="518.9" rx="2.9" ry="2.7"/>
					<ellipse fill="#9D9D9C" cx="-97.5" cy="518.9" rx="2.9" ry="2.7"/>
					<ellipse fill="#9D9D9C" cx="-73.6" cy="518.9" rx="2.9" ry="2.7"/>
					<ellipse fill="#9D9D9C" cx="-49.9" cy="518.9" rx="2.9" ry="2.7"/>
					<ellipse fill="#9D9D9C" cx="-26.1" cy="518.9" rx="2.9" ry="2.7"/>
					<ellipse fill="#9D9D9C" cx="-2.4" cy="518.9" rx="2.9" ry="2.7"/>
				</g>
			</g>
			<g>
				<g>
					
						<linearGradient id="SVGID_13_" gradientUnits="userSpaceOnUse" x1="-158.1742" y1="-2335.3928" x2="-602.814" y2="-1472.658" gradientTransform="matrix(0.2744 0 0 -0.2744 1.643524e-05 208.6787)">
						<stop  offset="0" style="stop-color:#7E5D17"/>
						<stop  offset="1" style="stop-color:#9E7813"/>
					</linearGradient>
					<path fill="url(#SVGID_13_)" d="M48.9,653.9c0-8.7-7.1-15.8-15.8-15.8h-269.9c-8.7,0-15.8,7.1-15.8,15.8v168.8H49.1V653.9H48.9
						z"/>
					
						<linearGradient id="SVGID_14_" gradientUnits="userSpaceOnUse" x1="-945.1897" y1="-2264.176" x2="203.1753" y2="-2264.176" gradientTransform="matrix(0.2744 0 0 -0.2744 1.643524e-05 208.6787)">
						<stop  offset="0" style="stop-color:#7E5D17"/>
						<stop  offset="1" style="stop-color:#664C0D"/>
					</linearGradient>
					<rect x="-259.4" y="822.7" fill="url(#SVGID_14_)" width="315.1" height="14.7"/>
					<g>
						
							<linearGradient id="SVGID_15_" gradientUnits="userSpaceOnUse" x1="-126.6742" y1="-1849.6121" x2="-126.6742" y2="-1826.1763" gradientTransform="matrix(0.2744 0 0 -0.2744 1.643524e-05 208.6787)">
							<stop  offset="0" style="stop-color:#7C5B14"/>
							<stop  offset="1" style="stop-color:#9E7813"/>
						</linearGradient>
						<polygon fill="url(#SVGID_15_)" points="-2.2,708.1 -22.5,708.1 -47.1,708.1 -67.2,708.1 -71.6,716 -47.1,716 -22.5,716 
							2.1,716 						"/>
						<polygon fill="#503A14" points="-67.2,719.9 -47.1,719.9 -22.5,719.9 -2.2,719.9 2.1,716 -22.5,716 -47.1,716 -71.6,716 
													"/>
						
							<linearGradient id="SVGID_16_" gradientUnits="userSpaceOnUse" x1="-126.6742" y1="-1897.9309" x2="-126.6742" y2="-1869.2987" gradientTransform="matrix(0.2744 0 0 -0.2744 1.643524e-05 208.6787)">
							<stop  offset="0" style="stop-color:#7C5B14"/>
							<stop  offset="1" style="stop-color:#9E7813"/>
						</linearGradient>
						<polygon fill="url(#SVGID_16_)" points="-2.2,719.9 -22.5,719.9 -47.1,719.9 -67.2,719.9 -71.6,727.9 -47.1,727.9 
							-22.5,727.9 2.1,727.9 						"/>
						<polygon fill="#503A14" points="-67.2,731.7 -47.1,731.7 -22.5,731.7 -2.2,731.7 2.1,727.9 -22.5,727.9 -47.1,727.9 
							-71.6,727.9 						"/>
						
							<linearGradient id="SVGID_17_" gradientUnits="userSpaceOnUse" x1="-126.6742" y1="-1938.3862" x2="-126.6742" y2="-1909.8738" gradientTransform="matrix(0.2744 0 0 -0.2744 1.643524e-05 208.6787)">
							<stop  offset="0" style="stop-color:#7C5B14"/>
							<stop  offset="1" style="stop-color:#9E7813"/>
						</linearGradient>
						<polygon fill="url(#SVGID_17_)" points="-2.2,731.7 -22.5,731.7 -47.1,731.7 -67.2,731.7 -71.6,739.6 -47.1,739.6 
							-22.5,739.6 2.1,739.6 						"/>
						<polygon fill="#503A14" points="-67.2,743.6 -47.1,743.6 -22.5,743.6 -2.2,743.6 2.1,739.6 -22.5,739.6 -47.1,739.6 
							-71.6,739.6 						"/>
						
							<linearGradient id="SVGID_18_" gradientUnits="userSpaceOnUse" x1="-126.6742" y1="-1985.6794" x2="-126.6742" y2="-1955.4749" gradientTransform="matrix(0.2744 0 0 -0.2744 1.643524e-05 208.6787)">
							<stop  offset="0" style="stop-color:#7C5B14"/>
							<stop  offset="1" style="stop-color:#9E7813"/>
						</linearGradient>
						<polygon fill="url(#SVGID_18_)" points="-2.2,743.6 -22.5,743.6 -47.1,743.6 -67.2,743.6 -71.6,751.5 -47.1,751.5 
							-22.5,751.5 2.1,751.5 						"/>
						<polygon fill="#503A14" points="-67.2,755.5 -47.1,755.5 -22.5,755.5 -2.2,755.5 2.1,751.5 -22.5,751.5 -47.1,751.5 
							-71.6,751.5 						"/>
						
							<linearGradient id="SVGID_19_" gradientUnits="userSpaceOnUse" x1="-126.6742" y1="-2024.4258" x2="-126.6742" y2="-1995.8846" gradientTransform="matrix(0.2744 0 0 -0.2744 1.643524e-05 208.6787)">
							<stop  offset="0" style="stop-color:#7C5B14"/>
							<stop  offset="1" style="stop-color:#9E7813"/>
						</linearGradient>
						<polygon fill="url(#SVGID_19_)" points="-2.2,755.5 -22.5,755.5 -47.1,755.5 -67.2,755.5 -71.6,763.4 -47.1,763.4 
							-22.5,763.4 2.1,763.4 						"/>
						<polygon fill="#503A14" points="-67.2,767.4 -47.1,767.4 -22.5,767.4 -2.2,767.4 2.1,763.4 -22.5,763.4 -47.1,763.4 
							-71.6,763.4 						"/>
					</g>
					<g>
						<path fill="#E1F2FB" stroke="#DADADA" stroke-miterlimit="10" d="M-147.2,758H-204c-2,0-3.5-1.6-3.5-3.5v-20
							c0-2,1.5-3.5,3.5-3.5h56.8c2,0,3.5,1.5,3.5,3.5v20C-143.6,756.5-145.2,758-147.2,758z"/>
						<circle fill="#E1F2FB" stroke="#DADADA" stroke-miterlimit="10" cx="-198.3" cy="714.7" r="9.2"/>
						<circle fill="#E1F2FB" stroke="#DADADA" stroke-miterlimit="10" cx="-175.5" cy="714.7" r="9.2"/>
						<circle fill="#E1F2FB" stroke="#DADADA" stroke-miterlimit="10" cx="-152.7" cy="714.7" r="9.2"/>
						<g>
							<polygon fill="#E94E1B" points="-171.3,719.6 -174.5,713.7 -175.5,714.7 							"/>
							<polygon fill="#BE1622" points="-171.3,719.6 -176.6,715.5 -175.5,714.7 							"/>
							<polygon fill="#BE1622" points="-178.3,711.4 -176.6,715.5 -175.5,714.7 							"/>
							<polygon fill="#E94E1B" points="-178.3,711.4 -174.5,713.7 -175.5,714.7 							"/>
							<circle fill="#9D9D9C" stroke="#575756" stroke-width="0.5" stroke-miterlimit="10" cx="-175.5" cy="714.7" r="0.7"/>
						</g>
						<g>
							<polygon fill="#E94E1B" points="-201.2,708.7 -199.6,715.2 -198.3,714.6 							"/>
							<polygon fill="#BE1622" points="-201.2,708.7 -197.2,714 -198.3,714.6 							"/>
							<polygon fill="#BE1622" points="-196.5,718.6 -197.2,714 -198.3,714.6 							"/>
							<polygon fill="#E94E1B" points="-196.5,718.6 -199.6,715.2 -198.3,714.6 							"/>
							<circle fill="#9D9D9C" stroke="#575756" stroke-width="0.5" stroke-miterlimit="10" cx="-198.3" cy="714.6" r="0.7"/>
						</g>
						<g>
							<polygon fill="#E94E1B" points="-149.5,708.9 -154,714 -152.8,714.7 							"/>
							<polygon fill="#BE1622" points="-149.5,708.9 -151.6,715.3 -152.8,714.7 							"/>
							<polygon fill="#BE1622" points="-155,718.3 -151.6,715.3 -152.8,714.7 							"/>
							<polygon fill="#E94E1B" points="-155,718.3 -154,714 -152.8,714.7 							"/>
							<circle fill="#9D9D9C" stroke="#575756" stroke-width="0.5" stroke-miterlimit="10" cx="-152.8" cy="714.7" r="0.7"/>
						</g>
					</g>
					<g>
						<path fill="#EDEDED" d="M-185.7,686.7c-0.9,0-1.8-0.8-1.8-1.8v-28.5c0-0.9,0.8-1.8,1.8-1.8h168c0.9,0,1.8,0.8,1.8,1.8v28.5
							c0,0.9-0.8,1.8-1.8,1.8H-185.7z"/>
						<path fill="#575756" d="M-17.8,656.5v28.5h-167.9v-28.5H-17.8 M-17.8,652.9h-167.9c-1.9,0-3.5,1.5-3.5,3.5v28.5
							c0,2,1.6,3.5,3.5,3.5h167.9c2,0,3.5-1.5,3.5-3.5v-28.5C-14.2,654.6-15.9,652.9-17.8,652.9L-17.8,652.9z"/>
					</g>
					<g>
						<polygon fill="#4B4A4A" points="-74.7,681.4 -78.5,681.4 -67.5,660 -63.8,659.9 						"/>
						<g>
							<path fill="#4B4A4A" d="M-164.3,664.8h6.1c1.4,0,2.6,0.2,3.3,0.6c1.2,0.5,1.9,1.3,2.5,2.5c0.4,0.8,0.5,1.8,0.5,2.8
								c0,2-0.6,3.5-1.8,4.6c-0.5,0.5-1.2,0.8-1.9,1.1c-0.7,0.2-1.6,0.4-2.7,0.4h-6.1v-11.9H-164.3z M-161.7,674.5h3.2
								c1.4,0,2.5-0.4,3.2-0.9c0.7-0.7,1.1-1.6,1.1-2.8s-0.4-2.1-1.1-2.8c-0.4-0.4-0.8-0.6-1.3-0.7s-1.2-0.2-1.9-0.2h-3.2V674.5z"/>
							<path fill="#4B4A4A" d="M-140.9,673.6h-5.6l-1.3,2.9h-2.4l5.6-11.8h1.9l5.9,11.8h-2.5L-140.9,673.6z M-141.6,672l-2.2-3.8
								l-2.1,3.8H-141.6z"/>
							<path fill="#4B4A4A" d="M-124.1,666.3l-1.1,1.8c-0.6-0.5-1.3-0.8-2.1-1.1c-0.8-0.2-1.6-0.4-2.5-0.4c-0.7,0-1.3,0.1-1.9,0.4
								c-0.8,0.2-1.3,0.7-1.3,1.2c0,0.4,0.2,0.6,0.6,0.7c0.4,0.1,1.2,0.2,2.2,0.4l1.6,0.1c1.4,0.1,2.6,0.4,3.3,0.8
								c0.4,0.2,0.7,0.6,0.9,1.1c0.4,0.6,0.5,1.2,0.5,1.8c0,1.2-0.5,2.1-1.5,2.8c-1.1,0.7-2.4,0.9-4.1,0.9c-1.9,0-3.6-0.5-5.5-1.5
								l0.7-1.8c0.6,0.4,1.3,0.6,2.1,0.8c0.8,0.2,1.8,0.4,2.6,0.4c0.7,0,1.4-0.1,2.1-0.4c0.8-0.2,1.2-0.6,1.2-1.2
								c0-0.5-0.2-0.7-0.8-0.9c-0.4-0.1-0.9-0.2-1.9-0.2l-1.6-0.1c-0.9-0.1-1.5-0.1-2-0.2c-0.5-0.1-0.8-0.2-1.2-0.5
								c-0.5-0.2-0.7-0.7-0.9-1.2c-0.2-0.5-0.4-1.1-0.4-1.6c0-1.3,0.5-2.2,1.5-2.9c0.9-0.6,2.2-0.9,3.6-0.9c0.8,0,1.6,0.1,2.5,0.4
								C-126.3,665-125.3,665.5-124.1,666.3z"/>
							<path fill="#4B4A4A" d="M-111.4,671.5h-6.9v5.2h-2.5v-11.8h2.5v4.6h6.9v-4.6h2.5v11.8h-2.5V671.5z"/>
							<path fill="#4B4A4A" d="M-95.6,670.2c0.8,0.2,1.3,0.6,1.5,0.8c0.5,0.5,0.7,1.2,0.7,2c0,1.2-0.5,2-1.3,2.7
								c-0.7,0.6-1.8,0.8-3.1,0.8h-7.5v-11.8h7.4c1.4,0,2.5,0.2,3.1,0.8c0.7,0.6,1.1,1.3,1.1,2.2c0,0.6-0.1,1.1-0.4,1.4
								C-94.2,669.5-94.8,669.9-95.6,670.2z M-102.7,669.2h4.5c0.7,0,1.2-0.1,1.5-0.2c0.4-0.1,0.5-0.5,0.5-0.9s-0.1-0.7-0.5-0.9
								c-0.4-0.2-0.8-0.2-1.5-0.2h-4.5V669.2z M-102.7,674.5h4.6c1.5,0,2.4-0.5,2.4-1.5c0-1.1-0.8-1.5-2.4-1.5h-4.6V674.5z"/>
							<path fill="#4B4A4A" d="M-90.6,664.8h6.1c1.4,0,2.6,0.2,3.3,0.6c1.2,0.5,1.9,1.3,2.5,2.5c0.4,0.8,0.5,1.8,0.5,2.8
								c0,2-0.6,3.5-1.8,4.6c-0.5,0.5-1.2,0.8-1.9,1.1c-0.7,0.2-1.6,0.4-2.7,0.4h-6.1v-11.9H-90.6z M-88.1,674.5h3.2
								c1.4,0,2.5-0.4,3.2-0.9c0.7-0.7,1.1-1.6,1.1-2.8s-0.4-2.1-1.1-2.8c-0.4-0.4-0.8-0.6-1.3-0.7c-0.5-0.1-1.2-0.2-1.9-0.2h-3.2
								V674.5z"/>
							<path fill="#58BDEC" d="M-63.2,673.4c0.5,0,0.8,0.1,1.1,0.5c0.4,0.4,0.5,0.7,0.5,1.3c0,0.5-0.1,0.8-0.5,1.2
								c-0.4,0.4-0.7,0.5-1.1,0.5c-0.5,0-0.8-0.1-1.1-0.5c-0.4-0.4-0.5-0.7-0.5-1.2c0-0.5,0.1-0.8,0.5-1.2
								C-64,673.5-63.6,673.4-63.2,673.4z"/>
							<path fill="#58BDEC" d="M-55.5,676.6H-58v-11.8h2.5V676.6z"/>
							<path fill="#58BDEC" d="M-46,664.6c1.9,0,3.3,0.5,4.6,1.4c1.4,1.2,2.2,2.7,2.2,4.8c0,1.9-0.7,3.4-2.2,4.6
								c-1.2,0.9-2.7,1.4-4.6,1.4s-3.4-0.5-4.6-1.4c-1.4-1.2-2.2-2.7-2.2-4.7s0.7-3.5,2.2-4.7C-49.3,665-47.8,664.6-46,664.6z
								 M-46,666.8c-1.3,0-2.2,0.4-3.1,1.2c-0.7,0.7-1.1,1.6-1.1,2.7c0,1.1,0.4,2,1.1,2.7c0.8,0.8,1.9,1.2,3.2,1.2s2.2-0.4,3.1-1.2
								c0.7-0.7,1.1-1.6,1.1-2.7c0-1.2-0.4-2.1-1.1-2.8C-43.6,667.2-44.7,666.8-46,666.8z"/>
						</g>
					</g>
					<g>
						<rect x="36.8" y="615.4" fill="#C6C6C6" width="12.7" height="36.5"/>
						<polygon fill="#9D9D9C" points="31.9,615.4 43.2,596.9 54.5,615.4 						"/>
						<polygon fill="#706F6F" points="43.2,618.8 39.8,627.6 43.2,627.6 46.6,627.6 						"/>
					</g>
					<path fill="#EDEDED" d="M57.9,558c0.2-0.6,0.4-1.3,0.4-2c0-3.6-2.9-6.7-6.7-6.7c-1.5,0-2.9,0.5-4,1.4c-1.8-2-4.2-3.3-7.1-3.3
						c-4.9,0-8.9,3.8-9.3,8.6c-5.2,1.3-9.1,6-9.1,11.6c0,3.4,1.4,6.4,3.6,8.6c-0.2,0.6-0.2,1.3-0.2,2c0,3.6,2.9,6.7,6.7,6.7
						c1.2,0,2.2-0.2,3.2-0.8c1.5,2.9,4.7,4.9,8.2,4.9c5.2,0,9.3-4.2,9.3-9.3c0-0.6,0-1.1-0.1-1.6c0.5,0,0.8,0.1,1.3,0.1
						c5.8,0,10.5-4.7,10.5-10.5C64.3,563.4,61.6,559.6,57.9,558z"/>
				</g>
			</g>
			<polygon fill="#9D9D9C" points="-97.5,385.2 -320.3,385.2 -192.7,513.2 -2.4,513.2 125.4,385.2 			"/>
			<rect x="-320.3" y="385.2" fill="#706F6F" width="445.7" height="9.4"/>
		</g>
	</g>
</g>
</svg>
