<?xml version="1.0" encoding="utf-8"?>
<!-- Generator: Adobe Illustrator 18.1.1, SVG Export Plug-In . SVG Version: 6.00 Build 0)  -->
<svg version="1.1" id="Layer_1" xmlns="http://www.w3.org/2000/svg" xmlns:xlink="http://www.w3.org/1999/xlink" x="0px" y="0px"
	 viewBox="-1081.7 -1051.3 3000 1798.3" enable-background="new -1081.7 -1051.3 3000 1798.3" xml:space="preserve">
<g>
	<polygon fill="#3C3C3B" points="466.4,418.8 370.3,418.8 -1081.7,-1051.3 -1081.7,744.3 1028.5,746.9 1918.3,744.3 1918.3,-1051.3 
			"/>
	<g>
		<g>
			<g>
				<path fill="#CBBBA0" stroke="#706F6F" stroke-width="5" stroke-miterlimit="10" d="M845.3,665.4H594.5c-4.3,0-7.8-3.5-7.8-7.8
					v-6.7c0-4.3,3.5-7.8,7.8-7.8h250.8c4.3,0,7.8,3.5,7.8,7.8v6.7C853.1,661.9,849.6,665.4,845.3,665.4z"/>
				<g>
					<circle fill="#CBBBA0" stroke="#706F6F" stroke-width="2" stroke-miterlimit="10" cx="599.9" cy="653.8" r="7.2"/>
					<circle fill="#CBBBA0" stroke="#706F6F" stroke-width="2" stroke-miterlimit="10" cx="659.8" cy="653.8" r="7.2"/>
					<circle fill="#CBBBA0" stroke="#706F6F" stroke-width="2" stroke-miterlimit="10" cx="719.7" cy="653.8" r="7.2"/>
					<circle fill="#CBBBA0" stroke="#706F6F" stroke-width="2" stroke-miterlimit="10" cx="779.7" cy="653.8" r="7.2"/>
					<circle fill="#CBBBA0" stroke="#706F6F" stroke-width="2" stroke-miterlimit="10" cx="839.6" cy="653.8" r="7.2"/>
				</g>
			</g>
			<path fill="#37589B" d="M744.4,641.2h-33.4c-4.3,0-7.8-3.5-7.8-7.8V600c0-4.3,3.5-7.8,7.8-7.8h33.4c4.3,0,7.8,3.5,7.8,7.8v33.4
				C752.2,637.7,748.7,641.2,744.4,641.2z"/>
			<path fill="#FFFFFF" d="M734.7,616.7h-4.6c0,7.3,0,16.4,0,16.4h-6.8c0,0,0-9,0-16.4H720v-5.8h3.2v-3.7c0-2.6,1.3-6.8,6.8-6.8h5.1
				v5.7c0,0-3,0-3.7,0c-0.6,0-1.5,0.3-1.5,1.6v3.4h5.2L734.7,616.7z"/>
			<g>
				<path fill="#3AAAE1" d="M825.9,600.6c0,0.4,0,0.9,0,1.3c0,12.9-9.9,27.9-27.9,27.9c-5.6,0-10.7-1.7-15.1-4.4
					c0.8,0.1,1.6,0.1,2.3,0.1c4.6,0,8.8-1.6,12.1-4.2c-4.3-0.1-7.9-2.9-9.2-6.8c0.6,0.1,1.2,0.2,1.9,0.2c0.9,0,1.8-0.1,2.5-0.4
					c-4.5-0.9-7.8-4.9-7.8-9.6v-0.1c1.4,0.8,2.8,1.2,4.4,1.3c-2.6-1.8-4.4-4.8-4.4-8.1c0-1.8,0.5-3.5,1.4-4.9
					c4.8,6,12,9.9,20.2,10.3c-0.2-0.7-0.3-1.5-0.3-2.2c0-5.4,4.4-9.8,9.8-9.8c2.8,0,5.4,1.2,7.1,3.1c2.2-0.4,4.3-1.3,6.3-2.3
					c-0.8,2.2-2.2,4.2-4.3,5.4c2-0.2,3.9-0.8,5.7-1.6C829.4,597.5,827.8,599.3,825.9,600.6z"/>
			</g>
			<g>
				<g>
					
						<line fill="none" stroke="#575756" stroke-width="3" stroke-linecap="round" stroke-linejoin="round" stroke-miterlimit="10" x1="775.2" y1="640.3" x2="838.6" y2="640.3"/>
					
						<path fill="none" stroke="#575756" stroke-width="3" stroke-linecap="round" stroke-linejoin="round" stroke-miterlimit="10" d="
						M780.1,640.3v-48.5c0,0-1.4-25.9,26.8-25.9"/>
					
						<path fill="none" stroke="#575756" stroke-width="3" stroke-linecap="round" stroke-linejoin="round" stroke-miterlimit="10" d="
						M793.5,640.3v-50.2c0,0-0.1-24.3,13.4-24.3"/>
					
						<path fill="none" stroke="#575756" stroke-width="3" stroke-linecap="round" stroke-linejoin="round" stroke-miterlimit="10" d="
						M833.7,640.3v-48.5c0,0,1.4-25.9-26.8-25.9"/>
					
						<path fill="none" stroke="#575756" stroke-width="3" stroke-linecap="round" stroke-linejoin="round" stroke-miterlimit="10" d="
						M820.4,640.3v-50.2c0,0,0.1-24.3-13.4-24.3"/>
					
						<line fill="none" stroke="#575756" stroke-width="3" stroke-linecap="round" stroke-linejoin="round" stroke-miterlimit="10" x1="806.9" y1="640.3" x2="806.9" y2="561.7"/>
				</g>
				
					<circle fill="none" stroke="#575756" stroke-width="3" stroke-linecap="round" stroke-linejoin="round" stroke-miterlimit="10" cx="806.9" cy="558.7" r="4.2"/>
				
					<line fill="none" stroke="#575756" stroke-width="3" stroke-linecap="round" stroke-linejoin="round" stroke-miterlimit="10" x1="777.3" y1="589.3" x2="836.5" y2="589.3"/>
			</g>
			<g>
				<g>
					
						<rect x="600.3" y="578.9" transform="matrix(-0.9763 -0.2162 0.2162 -0.9763 1129.4144 1328.9797)" fill="#8E7015" width="74.1" height="47.7"/>
					
						<rect x="604.1" y="573.4" transform="matrix(-0.9763 -0.2162 0.2162 -0.9763 1146.6702 1278.376)" fill="#7F6114" width="78.2" height="6.2"/>
					
						<rect x="592.5" y="626" transform="matrix(-0.9763 -0.2162 0.2162 -0.9763 1112.2803 1379.8303)" fill="#7F6114" width="78.2" height="6.2"/>
					<polygon fill="#7F6114" points="680.8,588 592.9,623.6 594.2,617.7 682.2,582 					"/>
				</g>
				<g>
					<g>
						<polygon fill="#EDEDED" points="649.1,605.3 643.7,607.3 639.2,616.6 660.4,626.7 666.5,613.7 						"/>
						<polygon fill="#BE1622" points="649.1,605.3 648.5,606.5 665,614.3 659.8,625 640.9,616 644.8,607.8 643.7,607.3 639.2,616.6 
							660.4,626.7 666.5,613.7 						"/>
					</g>
					<polygon fill="#C6C6C6" points="647.4,609.1 649.1,605.3 643.7,607.3 					"/>
				</g>
			</g>
		</g>
	</g>
	<g>
		<path fill="#0071CE" d="M511.4,136.9l3.5-0.8c0.9-0.2,1.6-0.6,1.9-1.2c0.3-0.5,0.5-1.2,0.4-1.9c-0.1-0.7-0.2-1.5-0.4-2.3
			c-0.2-0.9-0.4-1.6-0.7-2.2c-0.3-0.7-0.7-1.2-1.2-1.6c-0.5-0.3-1.3-0.4-2.2-0.2l-3.5,0.8L511.4,136.9L511.4,136.9z M517.6,130.6
			c0.4,1.8,0.9,2.9,1.6,3.6c0.7,0.7,1.7,0.8,2.8,0.5c1.3-0.3,2.1-0.9,2.3-1.8c0.3-0.9,0.3-2.2-0.1-3.9s-0.9-2.9-1.6-3.6
			c-0.7-0.7-1.7-0.8-2.8-0.5c-1.3,0.3-2.1,0.9-2.3,1.8C517.1,127.5,517.2,128.8,517.6,130.6L517.6,130.6z M528.6,126.7l2.3-0.6
			l-0.1-0.6c-0.2-0.9-0.6-1.6-1.2-2.1c-0.6-0.4-1.5-0.5-2.5-0.3c-1.3,0.3-2.1,0.9-2.3,1.7c-0.3,0.9-0.3,2.2,0.2,3.9
			c0.3,1.2,0.6,2.1,0.9,2.7c0.4,0.7,0.8,1.1,1.4,1.4c0.6,0.2,1.3,0.2,2.2,0c0.5-0.1,1-0.3,1.5-0.6c0.4-0.3,0.7-0.7,0.9-1.3
			c0.2-0.6,0.2-1.3,0-2.2l-0.2-0.7l-2.3,0.6c0.2,0.9,0.3,1.5,0.3,1.9c0,0.4-0.2,0.6-0.5,0.6c-0.2,0.1-0.5,0-0.6-0.1
			c-0.2-0.2-0.3-0.5-0.5-1c-0.1-0.5-0.3-1.1-0.5-2c-0.2-0.9-0.3-1.5-0.4-2s-0.1-0.8,0-1.1c0.1-0.2,0.2-0.4,0.5-0.4
			c0.2-0.1,0.4,0,0.6,0.2c0.2,0.2,0.3,0.5,0.4,1.1L528.6,126.7L528.6,126.7z M541.9,114.2l5.3,23l23-5.3l14.1,61.1l-61.1,14.1
			L503.8,123L541.9,114.2L541.9,114.2z M515.9,156.4l10.5,45.6l52.8-12.1l-10.5-45.6L515.9,156.4L515.9,156.4z M512.1,128.7l0.5-0.1
			c0.3-0.1,0.6-0.1,0.8,0c0.2,0.1,0.4,0.4,0.5,0.8c0.1,0.4,0.3,1.1,0.5,1.9c0.2,0.9,0.3,1.5,0.4,1.9c0.1,0.4,0,0.8-0.1,0.9
			c-0.1,0.2-0.3,0.3-0.7,0.4l-0.5,0.1L512.1,128.7L512.1,128.7z M520.1,130c-0.2-0.9-0.3-1.5-0.4-2c-0.1-0.5-0.1-0.8,0-1.1
			c0.1-0.2,0.2-0.4,0.5-0.4c0.3-0.1,0.5,0,0.6,0.1c0.2,0.2,0.3,0.5,0.5,1c0.1,0.5,0.3,1.1,0.5,2c0.2,0.9,0.3,1.5,0.4,2
			c0.1,0.5,0.1,0.8,0,1.1c-0.1,0.2-0.2,0.4-0.5,0.4c-0.3,0.1-0.5,0-0.6-0.1c-0.2-0.2-0.3-0.5-0.5-1
			C520.4,131.4,520.3,130.8,520.1,130L520.1,130z M569.2,170.3l-0.3,14.7l-4.5,1.1l-3.4-7.7l0.2,8.4l-4.5,1.1l-6.6-13.1l4.4-1
			l3.5,8.2l-0.3-9l3.7-0.9l3.6,8.2l-0.4-9L569.2,170.3L569.2,170.3z M526.8,180l20.3-4.7l0.5,2l-20.3,4.7L526.8,180L526.8,180z
			 M525.3,174.1l42.5-9.8l0.5,2l-42.5,9.8L525.3,174.1L525.3,174.1z M524,168.1l42.5-9.8l0.5,2l-42.5,9.8L524,168.1L524,168.1z
			 M522.6,162.2l42.5-9.8l0.5,2l-42.5,9.8L522.6,162.2L522.6,162.2z M528.2,186l20.3-4.7l0.5,2l-20.3,4.7L528.2,186L528.2,186z
			 M529.5,192l20.3-4.7l0.5,2l-20.3,4.7L529.5,192L529.5,192z M544.6,113.6l25,15.6l-20.3,4.7L544.6,113.6L544.6,113.6z"/>
	</g>
	<g>
		<path fill="#3FAE2A" d="M439.4,161.4l2.6,0.5l0.1-0.7c0.2-1,0.1-1.9-0.3-2.5c-0.4-0.7-1.3-1.2-2.4-1.4c-1.4-0.3-2.4,0-3.1,0.7
			c-0.7,0.8-1.3,2.1-1.6,4.1c-0.2,1.3-0.3,2.3-0.3,3.2c0.1,0.9,0.3,1.5,0.8,2s1.2,0.8,2.2,1c0.6,0.1,1.2,0.1,1.8,0
			c0.6-0.1,1.1-0.4,1.5-0.9c0.4-0.5,0.7-1.2,0.9-2.2l0.1-0.8l-2.6-0.5c-0.2,1-0.3,1.7-0.5,2c-0.2,0.4-0.4,0.5-0.8,0.4
			c-0.3,0-0.5-0.2-0.6-0.4c-0.1-0.2-0.1-0.6-0.1-1.2c0.1-0.5,0.2-1.3,0.3-2.2c0.2-1,0.3-1.7,0.5-2.2c0.1-0.5,0.3-0.9,0.5-1.1
			c0.2-0.2,0.4-0.3,0.7-0.2c0.3,0,0.4,0.2,0.5,0.4c0.1,0.3,0.1,0.7,0,1.3L439.4,161.4L439.4,161.4z M449.8,162.5
			c0.2-1.1,0.1-2-0.4-2.6c-0.5-0.6-1.3-1.1-2.4-1.3c-1.2-0.2-2.1-0.1-2.7,0.4c-0.7,0.5-1.1,1.2-1.3,2.2c-0.1,0.9,0,1.7,0.3,2.2
			c0.4,0.5,0.8,0.9,1.3,1.3c0.5,0.3,1,0.6,1.4,0.9c0.4,0.3,0.6,0.7,0.5,1.2c-0.1,0.3-0.2,0.5-0.4,0.7c-0.2,0.2-0.4,0.2-0.7,0.2
			c-0.3,0-0.5-0.2-0.6-0.4c-0.1-0.2-0.2-0.6-0.1-1V166l-2.6-0.5l-0.1,0.4c-0.2,1.1,0,1.9,0.5,2.4s1.4,1,2.4,1.1
			c1.2,0.2,2.2,0.1,2.9-0.3c0.7-0.4,1.2-1.2,1.4-2.2c0.1-1,0-1.7-0.3-2.2c-0.4-0.5-0.8-1-1.4-1.3c-0.6-0.3-1-0.7-1.4-1
			c-0.4-0.3-0.6-0.7-0.5-1.2c0-0.2,0.2-0.5,0.3-0.6c0.2-0.2,0.4-0.2,0.7-0.2c0.3,0.1,0.4,0.2,0.5,0.4c0.1,0.2,0.1,0.5,0,0.8v0.3
			L449.8,162.5L449.8,162.5z M451.1,170.5l3.5,0.6l4.1-10.1l-2.9-0.5l-2.5,7.7l0.3-8.1l-2.9-0.5L451.1,170.5L451.1,170.5z
			 M474.5,157.5l-4.6,25.6l25.6,4.6l-12.2,68.2l-68.1-12.1l16.7-93.7L474.5,157.5L474.5,157.5z M429.8,189l-9.1,50.8l58.9,10.6
			l9.1-50.8L429.8,189L429.8,189z M447.2,202.3l-0.8,4.5l9.1,1.7l0.8-4.5L447.2,202.3L447.2,202.3z M466.8,210.5l0.8-4.5l-9.1-1.7
			l-0.8,4.5L466.8,210.5L466.8,210.5z M465.7,217.1l0.8-4.5l-9.1-1.7l-0.8,4.5L465.7,217.1L465.7,217.1z M464.5,223.8l0.8-4.5
			l-9.1-1.7l-0.8,4.5L464.5,223.8L464.5,223.8z M463.2,230.4l0.8-4.5l-9.1-1.7l-0.8,4.5L463.2,230.4L463.2,230.4z M462,237.1
			l0.8-4.5l-9.1-1.7l-0.8,4.5L462,237.1L462,237.1z M478.2,212.5l0.8-4.5l-9.1-1.7l-0.8,4.5L478.2,212.5L478.2,212.5z M476.9,219.2
			l0.8-4.5l-9.1-1.7l-0.8,4.5L476.9,219.2L476.9,219.2z M475.7,225.8l0.8-4.5l-9.1-1.7l-0.8,4.5L475.7,225.8L475.7,225.8z
			 M474.6,232.5l0.8-4.5l-9.1-1.7l-0.8,4.5L474.6,232.5L474.6,232.5z M473.4,239.1l0.8-4.5l-9.1-1.7l-0.8,4.5L473.4,239.1
			L473.4,239.1z M444.3,206.5l0.8-4.5l-9.1-1.7l-0.8,4.5L444.3,206.5L444.3,206.5z M443.1,213.1l0.8-4.5l-9.1-1.7l-0.8,4.5
			L443.1,213.1L443.1,213.1z M441.8,219.8l0.8-4.5l-9.1-1.7l-0.8,4.5L441.8,219.8L441.8,219.8z M440.6,226.4l0.8-4.5l-9.1-1.7
			l-0.8,4.5L440.6,226.4L440.6,226.4z M450.8,235l0.8-4.5l-9.1-1.7l-0.8,4.5L450.8,235L450.8,235z M440.2,228.6l-9.1-1.7l-0.8,4.5
			l9.1,1.7L440.2,228.6L440.2,228.6z M443.7,222.3l-0.8,4.5l9.1,1.7l0.8-4.5L443.7,222.3L443.7,222.3z M444.8,215.6l-0.8,4.5
			l9.1,1.7l0.8-4.5L444.8,215.6L444.8,215.6z M446,209l-0.8,4.5l9.1,1.7l0.8-4.5L446,209L446,209z M481.5,206.3l-6.4,35.4l-47.3-8.5
			l6.4-35.4L481.5,206.3L481.5,206.3z M477.4,158l18.6,26.7l-22.6-4L477.4,158L477.4,158z"/>
	</g>
	<g>
		<path fill="#3FAE2A" d="M347,139.8l-2.5,4.3l2.5,0.3l1.2-2.5l0.6,2.7l2.5,0.3l-1.7-4.7l2.3-4.2l-2.5-0.3l-1,2.4l-0.5-2.6l-2.5-0.3
			L347,139.8L347,139.8z M351.8,144.8l5.2,0.5l0.2-1.9l-2.8-0.3l0.7-6.9l-2.3-0.2L351.8,144.8L351.8,144.8z M363.8,139.7
			c0.1-1-0.1-1.7-0.5-2.2s-1.1-0.8-2.2-0.9c-1-0.1-1.8,0.1-2.2,0.5c-0.5,0.4-0.9,1.1-0.9,2c-0.1,0.8,0.1,1.4,0.4,1.8
			c0.3,0.4,0.7,0.7,1.2,1c0.5,0.2,0.9,0.5,1.2,0.7c0.3,0.2,0.5,0.6,0.5,1c0,0.3-0.1,0.5-0.3,0.6c-0.1,0.1-0.3,0.2-0.6,0.2
			c-0.2,0-0.4-0.1-0.5-0.3c-0.1-0.2-0.2-0.5-0.1-0.8V143l-2.2-0.2v0.3c-0.1,0.9,0.1,1.6,0.6,2.1c0.5,0.4,1.2,0.7,2.2,0.8
			c1,0.1,1.9,0,2.3-0.4c0.6-0.4,0.9-1.1,1-2c0.1-0.8-0.1-1.4-0.4-1.9c-0.3-0.4-0.8-0.8-1.2-1c-0.5-0.2-0.9-0.5-1.3-0.7
			s-0.5-0.6-0.5-1c0-0.2,0.1-0.4,0.2-0.5c0.1-0.1,0.3-0.2,0.6-0.2c0.2,0,0.4,0.1,0.5,0.3c0.1,0.2,0.1,0.4,0.1,0.7v0.2L363.8,139.7
			L363.8,139.7z M377.9,133.2l-2.2,21.6l21.6,2.2l-5.8,57.6l-57.5-5.8l7.9-79.2L377.9,133.2L377.9,133.2z M342.7,162.4l-4.3,42.9
			l49.7,5l4.3-42.9L342.7,162.4L342.7,162.4z M381,175.2l-2.5,25.3l-4.9-0.5l2.5-25.3L381,175.2L381,175.2z M372.6,179.9l-2,19.9
			l-4.9-0.5l2-19.9L372.6,179.9L372.6,179.9z M364.3,182.8l-1.6,16.1l-4.9-0.5l1.6-16.1L364.3,182.8L364.3,182.8z M355.9,186.7
			l-1.2,11.4l-4.9-0.5l1.2-11.4L355.9,186.7L355.9,186.7z M380.4,133.5l17.2,21l-19.2-2L380.4,133.5L380.4,133.5z"/>
	</g>
	<g>
		<path fill="#009FE3" d="M423.5,41.1l-0.2,2l1.7,0.1l-0.6,6.7l2.2,0.2l0.6-6.7l1.7,0.1l0.1-2L423.5,41.1L423.5,41.1z M433.5,46.2
			l2.2-4l-0.2,1.9l1.7,0.1l-0.6,6.7l2.2,0.2l0.6-6.7l1.7,0.1l0.2-2l-5.7-0.5l-2.5-0.2l-1,2.4l-0.5-2.5l-2.5-0.2l1.6,4.4l-2.4,4.2
			l2.5,0.2l1.1-2.5l0.7,2.6l2.5,0.2L433.5,46.2L433.5,46.2z M455.4,38.4l-1.7,21.2l21.2,1.7l-4.5,56.5l-56.5-4.5l6.3-77.7
			L455.4,38.4L455.4,38.4z M421.4,67.8l-3.4,42.1l48.8,3.9l3.4-42.1L421.4,67.8L421.4,67.8z M424.3,91.1l39.3,3.1l-0.1,1.8
			l-39.3-3.1L424.3,91.1L424.3,91.1z M424.8,85.6l39.3,3.1l-0.1,1.8l-39.3-3.1L424.8,85.6L424.8,85.6z M425.2,80l39.3,3.1l-0.1,1.8
			l-39.3-3.1L425.2,80L425.2,80z M425.7,74.5l39.3,3.1l-0.1,1.8l-39.3-3.1L425.7,74.5L425.7,74.5z M423.9,96.6l39.3,3.1l-0.1,1.8
			l-39.3-3.1L423.9,96.6L423.9,96.6z M423.4,102.1l39.3,3.1l-0.1,1.8l-39.3-3.1L423.4,102.1L423.4,102.1z M457.8,38.6l17.3,20.2
			l-18.8-1.5L457.8,38.6L457.8,38.6z"/>
	</g>
	<g>
		<path fill="none" d="M290.4,110.1l63.9-6.1L349,48.9L285.1,55L290.4,110.1z M292.2,62.7l51.4-4.9l0.2,2.3L292.4,65L292.2,62.7z
			 M292.9,69.9l51.4-4.9l0.2,2.3l-51.4,4.9L292.9,69.9z M293.6,77.2l51.4-4.9l0.2,2.3l-51.4,4.9L293.6,77.2z M294.2,84.4l51.4-4.9
			l0.2,2.3l-51.4,4.9L294.2,84.4z M294.9,91.6l51.4-4.9l0.2,2.3L295.1,94L294.9,91.6z M295.6,98.9L347,94l0.2,2.3l-51.4,4.9
			L295.6,98.9z"/>
		
			<rect x="292.2" y="60.2" transform="matrix(-0.9955 9.451604e-02 -9.451604e-02 -0.9955 640.3226 92.4792)" fill="#009FE3" width="51.6" height="2.3"/>
		<path fill="#009FE3" d="M295.3,24.9c-1.2,0.1-2,1-2.4,2.6c-0.5,1.7-0.6,3.4-0.4,5.3c0.1,0.9,0.4,1.6,0.8,2.2s1,0.9,1.6,0.8
			c0.6-0.1,1.2-0.4,1.6-0.9c0.4-0.5,0.8-1.6,1-3c0.3-1.6,0.3-2.9,0.2-4.3c-0.1-0.9-0.3-1.5-0.7-2C296.4,25.1,295.9,24.9,295.3,24.9z
			"/>
		<polygon fill="#009FE3" points="325.5,9.1 327.9,33.7 352.4,31.4 		"/>
		
			<rect x="292.8" y="67.5" transform="matrix(-0.9955 9.451604e-02 -9.451604e-02 -0.9955 642.3744 106.8548)" fill="#009FE3" width="51.6" height="2.3"/>
		
			<rect x="295.6" y="96.3" transform="matrix(-0.9955 9.451604e-02 -9.451604e-02 -0.9955 650.5544 164.1637)" fill="#009FE3" width="51.6" height="2.3"/>
		
			<rect x="293.5" y="74.7" transform="matrix(-0.9955 9.451604e-02 -9.451604e-02 -0.9955 644.4265 121.2305)" fill="#009FE3" width="51.6" height="2.3"/>
		
			<rect x="294.9" y="89.2" transform="matrix(-0.9955 9.451604e-02 -9.451604e-02 -0.9955 648.53 149.9817)" fill="#009FE3" width="51.6" height="2.3"/>
		<path fill="#009FE3" d="M322.3,9.4l-46.2,4.4l9.7,101.8l73.9-7l-7-73.9l-27.8,2.6L322.3,9.4z M287.6,22.6c1.8-2.6,4.5-4.1,8-4.4
			c2.2-0.2,3.9,0,5.4,0.8c1.5,0.7,2.6,1.8,3.7,3.1c1.1,1.4,1.7,3.1,1.9,5.4c0.3,2.9-0.3,5.3-1.8,7c-1.5,1.9-3,2.8-4.6,2.9
			c-1.2,0.1-2-0.4-2.3-1.5c-0.6,0.7-1.1,1.2-1.6,1.5s-1,0.5-1.7,0.5c-1.4,0.1-2.5-0.3-3.5-1.3c-1-1-1.5-2.4-1.7-4.2
			c-0.2-2.3,0.2-4.5,1.2-6.5s2.3-3,4-3.1c0.7-0.1,1.3,0,1.9,0.3c0.6,0.3,1.1,0.8,1.6,1.4l0.1-1.7l2.8-0.3l-0.7,11.3
			c0,0.3,0,0.4,0,0.5c0,0.4,0.2,0.5,0.6,0.5c0.6-0.1,1.2-0.4,1.8-1c0.6-0.6,1.1-1.5,1.5-2.5c0.4-1.1,0.5-2.3,0.4-3.8
			c-0.2-2.4-1.2-4.3-2.7-5.6c-1.6-1.4-3.5-1.9-5.9-1.7c-2.7,0.3-4.9,1.4-6.5,3.4c-1.6,2.1-2.2,4.6-2,7.7c0.3,3,1.4,5.3,3.2,6.9
			c1.9,1.6,4.2,2.2,6.8,2.1c1.3-0.1,2.5-0.5,3.7-1c1.2-0.6,2.2-1.3,3.2-2.2l2.9-0.3c-1.1,1.7-2.4,3-4.2,4c-1.8,1-3.5,1.6-5.4,1.8
			c-3.2,0.3-6-0.5-8.3-2.4s-3.7-4.7-4-8.2C285,28.3,285.7,25.1,287.6,22.6z M349.1,48.9l5.3,55.2l-63.9,6.1L285.2,55L349.1,48.9z"/>
		
			<rect x="294.2" y="81.9" transform="matrix(-0.9955 9.451604e-02 -9.451604e-02 -0.9955 646.4782 135.6061)" fill="#009FE3" width="51.6" height="2.3"/>
	</g>
	<g>
		<rect x="116.6" y="590.4" fill="#706F6F" width="61.3" height="42.2"/>
		<rect x="116.6" y="632.6" fill="#9D9D9C" width="61.3" height="32.8"/>
		<g>
			<g>
				<defs>
					<path id="SVGID_1_" d="M225.4,624.4H68.9c-4.3,0-7.8-3.5-7.8-7.8V506.2c0-4.3,3.5-7.8,7.8-7.8h156.5c4.3,0,7.8,3.5,7.8,7.8
						v110.4C233.2,620.9,229.7,624.4,225.4,624.4z"/>
				</defs>
				<clipPath id="SVGID_2_">
					<use xlink:href="#SVGID_1_"  overflow="visible"/>
				</clipPath>
				<rect x="61.1" y="498.5" clip-path="url(#SVGID_2_)" fill="#CCCCCC" width="172.1" height="103.4"/>
			</g>
			<g>
				<defs>
					<path id="SVGID_3_" d="M225.4,624.4H68.9c-4.3,0-7.8-3.5-7.8-7.8V506.2c0-4.3,3.5-7.8,7.8-7.8h156.5c4.3,0,7.8,3.5,7.8,7.8
						v110.4C233.2,620.9,229.7,624.4,225.4,624.4z"/>
				</defs>
				<clipPath id="SVGID_4_">
					<use xlink:href="#SVGID_3_"  overflow="visible"/>
				</clipPath>
				<rect x="66.7" y="505.4" clip-path="url(#SVGID_4_)" fill="#F6F6F6" width="160.9" height="96.4"/>
			</g>
			<g>
				<defs>
					<path id="SVGID_5_" d="M225.4,624.4H68.9c-4.3,0-7.8-3.5-7.8-7.8V506.2c0-4.3,3.5-7.8,7.8-7.8h156.5c4.3,0,7.8,3.5,7.8,7.8
						v110.4C233.2,620.9,229.7,624.4,225.4,624.4z"/>
				</defs>
				<clipPath id="SVGID_6_">
					<use xlink:href="#SVGID_5_"  overflow="visible"/>
				</clipPath>
				<rect x="61.1" y="601.8" clip-path="url(#SVGID_6_)" fill="#9D9D9C" width="172.1" height="22.6"/>
			</g>
			<g>
				<defs>
					<path id="SVGID_7_" d="M225.4,624.4H68.9c-4.3,0-7.8-3.5-7.8-7.8V506.2c0-4.3,3.5-7.8,7.8-7.8h156.5c4.3,0,7.8,3.5,7.8,7.8
						v110.4C233.2,620.9,229.7,624.4,225.4,624.4z"/>
				</defs>
				<clipPath id="SVGID_8_">
					<use xlink:href="#SVGID_7_"  overflow="visible"/>
				</clipPath>
				<g clip-path="url(#SVGID_8_)">
					<g>
						<path fill="#3AAA35" d="M117.7,537c3.2,0,5.9,2.6,5.9,5.9v33.9c0,3.2-2.6,5.9-5.9,5.9H83.8c-3.2,0-5.9-2.6-5.9-5.9v-33.9
							c0-3.2,2.6-5.9,5.9-5.9H117.7 M117.7,535H83.8c-4.3,0-7.8,3.5-7.8,7.8v33.9c0,4.3,3.5,7.8,7.8,7.8h33.9c4.3,0,7.8-3.5,7.8-7.8
							v-33.9C125.6,538.5,122,535,117.7,535L117.7,535z"/>
					</g>
					<g>
						<path fill="#E30613" d="M210.5,537c3.2,0,5.9,2.6,5.9,5.9v33.9c0,3.2-2.6,5.9-5.9,5.9h-33.9c-3.2,0-5.9-2.6-5.9-5.9v-33.9
							c0-3.2,2.6-5.9,5.9-5.9H210.5 M210.5,535h-33.9c-4.3,0-7.8,3.5-7.8,7.8v33.9c0,4.3,3.5,7.8,7.8,7.8h33.9
							c4.3,0,7.8-3.5,7.8-7.8v-33.9C218.4,538.5,214.8,535,210.5,535L210.5,535z"/>
					</g>
					<g>
						<circle fill="#3AAA35" cx="100.8" cy="559.9" r="14.5"/>
						<path fill="#FFFFFF" d="M99.6,569.2c-0.6,0-1.1-0.3-1.4-0.8l-4.7-8.2c-0.4-0.8-0.2-1.8,0.6-2.2c0.8-0.4,1.8-0.2,2.2,0.6
							l3.1,5.6l5.8-12.6c0.4-0.8,1.3-1.2,2.1-0.8c0.8,0.4,1.2,1.3,0.8,2.1l-7,15.5C100.8,568.8,100.2,569.2,99.6,569.2L99.6,569.2z"
							/>
					</g>
					<g>
						<path fill="#BE1622" d="M196.6,573.8h-6.3c-6,0-10.8-4.9-10.8-10.8v-6.3c0-6,4.9-10.8,10.8-10.8h6.3c6,0,10.8,4.9,10.8,10.8
							v6.3C207.5,568.9,202.6,573.8,196.6,573.8z"/>
						<g>
							<path fill="#FFFFFF" d="M201,568.9c-0.4,0-0.8-0.2-1.1-0.5l-14.8-14.8c-0.6-0.6-0.6-1.7,0-2.2c0.6-0.6,1.7-0.6,2.2,0
								l14.8,14.8c0.6,0.6,0.6,1.7,0,2.2C201.8,568.7,201.3,568.9,201,568.9z"/>
							<path fill="#FFFFFF" d="M186.2,568.9c-0.4,0-0.8-0.2-1.1-0.5c-0.6-0.6-0.6-1.7,0-2.2l14.8-14.8c0.6-0.6,1.7-0.6,2.2,0
								c0.6,0.6,0.6,1.7,0,2.2l-14.8,14.8C187,568.7,186.6,568.9,186.2,568.9z"/>
						</g>
					</g>
				</g>
			</g>
			<g>
				<defs>
					<path id="SVGID_9_" d="M225.4,624.4H68.9c-4.3,0-7.8-3.5-7.8-7.8V506.2c0-4.3,3.5-7.8,7.8-7.8h156.5c4.3,0,7.8,3.5,7.8,7.8
						v110.4C233.2,620.9,229.7,624.4,225.4,624.4z"/>
				</defs>
				<clipPath id="SVGID_10_">
					<use xlink:href="#SVGID_9_"  overflow="visible"/>
				</clipPath>
				<g clip-path="url(#SVGID_10_)">
					<circle fill="#9D9D9C" cx="147.2" cy="549.7" r="11.1"/>
					<circle fill="#CCCCCC" cx="147.2" cy="549.7" r="5.5"/>
					<polygon fill="#9D9D9C" points="142.9,540.4 147.2,534.3 151.5,540.4 					"/>
				</g>
			</g>
			<g>
				<defs>
					<path id="SVGID_11_" d="M225.4,624.4H68.9c-4.3,0-7.8-3.5-7.8-7.8V506.2c0-4.3,3.5-7.8,7.8-7.8h156.5c4.3,0,7.8,3.5,7.8,7.8
						v110.4C233.2,620.9,229.7,624.4,225.4,624.4z"/>
				</defs>
				<clipPath id="SVGID_12_">
					<use xlink:href="#SVGID_11_"  overflow="visible"/>
				</clipPath>
				<g clip-path="url(#SVGID_12_)">
					<circle fill="#9D9D9C" cx="147.2" cy="581.8" r="11.1"/>
					<circle fill="#CCCCCC" cx="147.2" cy="581.8" r="5.5"/>
					<polygon fill="#9D9D9C" points="142.9,572.5 147.2,566.4 151.5,572.5 					"/>
				</g>
			</g>
		</g>
		<g>
			<text transform="matrix(1 0 0 1 76.9912 522.7654)" fill="#3AAA35" font-family="'Courier-Bold'" font-size="12.3172">approve</text>
			<text transform="matrix(1 0 0 1 128.7178 522.7654)" fill="#878787" font-family="'Courier-Bold'" font-size="12.3172">/</text>
			<text transform="matrix(1 0 0 1 136.1474 522.7654)" fill="#36A9E1" font-family="'Courier-Bold'" font-size="12.3172">tune</text>
			<text transform="matrix(1 0 0 1 165.6787 522.7654)" fill="#878787" font-family="'Courier-Bold'" font-size="12.3172">/</text>
			<text transform="matrix(1 0 0 1 173.1162 522.7654)" fill="#E30613" font-family="'Courier-Bold'" font-size="12.3172">reject</text>
		</g>
	</g>
	<g>
		<g>
			<g>
				<rect x="593" y="543.1" fill="#706F6F" width="5.5" height="90.4"/>
				<rect x="531.1" y="573.8" fill="#9D9D9C" width="61.9" height="53.7"/>
				<rect x="531.2" y="547.5" fill="#C6C6C6" width="61.9" height="26.3"/>
			</g>
			<rect x="531.1" y="571" fill="#FFFFFF" width="61.4" height="11.2"/>
		</g>
		<g>
			<g>
				<g>
					<g>
						<rect x="391.5" y="405.5" fill="#9D9D9C" width="106.2" height="158.6"/>
						<rect x="339.5" y="405.5" fill="#C6C6C6" width="52" height="158.6"/>
					</g>
					<rect x="396.9" y="405.5" fill="#FFFFFF" width="14.8" height="158.5"/>
				</g>
				<rect x="339.5" y="395.9" fill="#706F6F" width="158.2" height="9.6"/>
				<g>
					<ellipse fill="#9D9D9C" cx="339.5" cy="400.7" rx="2.4" ry="2.2"/>
					<ellipse fill="#9D9D9C" cx="359.3" cy="400.7" rx="2.4" ry="2.2"/>
					<ellipse fill="#9D9D9C" cx="379.1" cy="400.7" rx="2.4" ry="2.2"/>
					<ellipse fill="#9D9D9C" cx="398.9" cy="400.7" rx="2.4" ry="2.2"/>
					<ellipse fill="#9D9D9C" cx="418.6" cy="400.7" rx="2.4" ry="2.2"/>
					<ellipse fill="#9D9D9C" cx="438.5" cy="400.7" rx="2.4" ry="2.2"/>
					<ellipse fill="#9D9D9C" cx="458.2" cy="400.7" rx="2.4" ry="2.2"/>
					<ellipse fill="#9D9D9C" cx="478" cy="400.7" rx="2.4" ry="2.2"/>
					<ellipse fill="#9D9D9C" cx="497.7" cy="400.7" rx="2.4" ry="2.2"/>
				</g>
			</g>
			<g>
				<g>
					
						<linearGradient id="SVGID_13_" gradientUnits="userSpaceOnUse" x1="1689.3887" y1="-1701.1219" x2="1319.7587" y2="-983.9289" gradientTransform="matrix(0.2744 0 0 -0.2744 -1.581827e-05 208.6788)">
						<stop  offset="0" style="stop-color:#7E5D17"/>
						<stop  offset="1" style="stop-color:#9E7813"/>
					</linearGradient>
					<path fill="url(#SVGID_13_)" d="M540.4,512.8c0-7.2-5.9-13.1-13.1-13.1H302.9c-7.2,0-13.1,5.9-13.1,13.1v140.3h250.6
						L540.4,512.8L540.4,512.8z"/>
					
						<linearGradient id="SVGID_14_" gradientUnits="userSpaceOnUse" x1="1035.1412" y1="-1641.9193" x2="1989.7791" y2="-1641.9193" gradientTransform="matrix(0.2744 0 0 -0.2744 -1.581827e-05 208.6788)">
						<stop  offset="0" style="stop-color:#7E5D17"/>
						<stop  offset="1" style="stop-color:#664C0D"/>
					</linearGradient>
					<rect x="284.1" y="653.2" fill="url(#SVGID_14_)" width="262" height="12.2"/>
					<g>
						
							<linearGradient id="SVGID_15_" gradientUnits="userSpaceOnUse" x1="1715.5746" y1="-1297.2915" x2="1715.5746" y2="-1277.8093" gradientTransform="matrix(0.2744 0 0 -0.2744 -1.581827e-05 208.6788)">
							<stop  offset="0" style="stop-color:#7C5B14"/>
							<stop  offset="1" style="stop-color:#9E7813"/>
						</linearGradient>
						<polygon fill="url(#SVGID_15_)" points="497.8,557.9 481,557.9 460.6,557.9 443.9,557.9 440.1,564.5 460.6,564.5 481,564.5 
							501.5,564.5 						"/>
						<polygon fill="#503A14" points="443.9,567.7 460.6,567.7 481,567.7 497.8,567.7 501.5,564.5 481,564.5 460.6,564.5 
							440.1,564.5 						"/>
						
							<linearGradient id="SVGID_16_" gradientUnits="userSpaceOnUse" x1="1715.5746" y1="-1337.4591" x2="1715.5746" y2="-1313.6571" gradientTransform="matrix(0.2744 0 0 -0.2744 -1.581827e-05 208.6788)">
							<stop  offset="0" style="stop-color:#7C5B14"/>
							<stop  offset="1" style="stop-color:#9E7813"/>
						</linearGradient>
						<polygon fill="url(#SVGID_16_)" points="497.8,567.7 481,567.7 460.6,567.7 443.9,567.7 440.1,574.3 460.6,574.3 481,574.3 
							501.5,574.3 						"/>
						<polygon fill="#503A14" points="443.9,577.6 460.6,577.6 481,577.6 497.8,577.6 501.5,574.3 481,574.3 460.6,574.3 
							440.1,574.3 						"/>
						
							<linearGradient id="SVGID_17_" gradientUnits="userSpaceOnUse" x1="1715.5746" y1="-1371.0896" x2="1715.5746" y2="-1347.3872" gradientTransform="matrix(0.2744 0 0 -0.2744 -1.581827e-05 208.6788)">
							<stop  offset="0" style="stop-color:#7C5B14"/>
							<stop  offset="1" style="stop-color:#9E7813"/>
						</linearGradient>
						<polygon fill="url(#SVGID_17_)" points="497.8,577.6 481,577.6 460.6,577.6 443.9,577.6 440.1,584.1 460.6,584.1 481,584.1 
							501.5,584.1 						"/>
						<polygon fill="#503A14" points="443.9,587.4 460.6,587.4 481,587.4 497.8,587.4 501.5,584.1 481,584.1 460.6,584.1 
							440.1,584.1 						"/>
						
							<linearGradient id="SVGID_18_" gradientUnits="userSpaceOnUse" x1="1715.5746" y1="-1410.4047" x2="1715.5746" y2="-1385.2954" gradientTransform="matrix(0.2744 0 0 -0.2744 -1.581827e-05 208.6788)">
							<stop  offset="0" style="stop-color:#7C5B14"/>
							<stop  offset="1" style="stop-color:#9E7813"/>
						</linearGradient>
						<polygon fill="url(#SVGID_18_)" points="497.8,587.4 481,587.4 460.6,587.4 443.9,587.4 440.1,594 460.6,594 481,594 
							501.5,594 						"/>
						<polygon fill="#503A14" points="443.9,597.3 460.6,597.3 481,597.3 497.8,597.3 501.5,594 481,594 460.6,594 440.1,594 						
							"/>
						
							<linearGradient id="SVGID_19_" gradientUnits="userSpaceOnUse" x1="1715.5746" y1="-1442.6145" x2="1715.5746" y2="-1418.8882" gradientTransform="matrix(0.2744 0 0 -0.2744 -1.581827e-05 208.6788)">
							<stop  offset="0" style="stop-color:#7C5B14"/>
							<stop  offset="1" style="stop-color:#9E7813"/>
						</linearGradient>
						<polygon fill="url(#SVGID_19_)" points="497.8,597.3 481,597.3 460.6,597.3 443.9,597.3 440.1,603.9 460.6,603.9 481,603.9 
							501.5,603.9 						"/>
						<polygon fill="#503A14" points="443.9,607.2 460.6,607.2 481,607.2 497.8,607.2 501.5,603.9 481,603.9 460.6,603.9 
							440.1,603.9 						"/>
					</g>
					<g>
						<path fill="#E1F2FB" stroke="#DADADA" stroke-miterlimit="10" d="M377.4,599.4h-47.2c-1.7,0-2.9-1.4-2.9-2.9v-16.6
							c0-1.7,1.3-2.9,2.9-2.9h47.2c1.7,0,2.9,1.3,2.9,2.9v16.6C380.3,598.1,379,599.4,377.4,599.4z"/>
						<circle fill="#E1F2FB" stroke="#DADADA" stroke-miterlimit="10" cx="334.8" cy="563.4" r="7.6"/>
						<circle fill="#E1F2FB" stroke="#DADADA" stroke-miterlimit="10" cx="353.8" cy="563.4" r="7.6"/>
						<circle fill="#E1F2FB" stroke="#DADADA" stroke-miterlimit="10" cx="372.8" cy="563.4" r="7.6"/>
						<g>
							<polygon fill="#E94E1B" points="357.3,567.5 354.7,562.6 353.8,563.4 							"/>
							<polygon fill="#BE1622" points="357.3,567.5 352.9,564.1 353.8,563.4 							"/>
							<polygon fill="#BE1622" points="351.4,560.6 352.9,564.1 353.8,563.4 							"/>
							<polygon fill="#E94E1B" points="351.4,560.6 354.7,562.6 353.8,563.4 							"/>
							<circle fill="#9D9D9C" stroke="#575756" stroke-width="0.5" stroke-miterlimit="10" cx="353.8" cy="563.4" r="0.6"/>
						</g>
						<g>
							<polygon fill="#E94E1B" points="332.5,558.4 333.7,563.8 334.8,563.3 							"/>
							<polygon fill="#BE1622" points="332.5,558.4 335.8,562.8 334.8,563.3 							"/>
							<polygon fill="#BE1622" points="336.4,566.6 335.8,562.8 334.8,563.3 							"/>
							<polygon fill="#E94E1B" points="336.4,566.6 333.7,563.8 334.8,563.3 							"/>
							<circle fill="#9D9D9C" stroke="#575756" stroke-width="0.5" stroke-miterlimit="10" cx="334.8" cy="563.3" r="0.6"/>
						</g>
						<g>
							<polygon fill="#E94E1B" points="375.4,558.6 371.7,562.8 372.7,563.4 							"/>
							<polygon fill="#BE1622" points="375.4,558.6 373.6,563.9 372.7,563.4 							"/>
							<polygon fill="#BE1622" points="370.8,566.4 373.6,563.9 372.7,563.4 							"/>
							<polygon fill="#E94E1B" points="370.8,566.4 371.7,562.8 372.7,563.4 							"/>
							<circle fill="#9D9D9C" stroke="#575756" stroke-width="0.5" stroke-miterlimit="10" cx="372.7" cy="563.4" r="0.6"/>
						</g>
					</g>
					<g>
						<path fill="#EDEDED" d="M345.3,540.1c-0.8,0-1.5-0.7-1.5-1.5V515c0-0.8,0.7-1.5,1.5-1.5h139.6c0.8,0,1.5,0.7,1.5,1.5v23.7
							c0,0.8-0.7,1.5-1.5,1.5H345.3z"/>
						<path fill="#575756" d="M484.9,515v23.7H345.4V515H484.9 M484.9,512H345.4c-1.6,0-2.9,1.3-2.9,2.9v23.7c0,1.7,1.4,2.9,2.9,2.9
							h139.5c1.7,0,2.9-1.3,2.9-2.9V515C487.9,513.4,486.5,512,484.9,512L484.9,512z"/>
					</g>
					<g>
						<polygon fill="#4B4A4A" points="437.6,535.7 434.5,535.7 443.6,517.9 446.7,517.8 						"/>
						<g>
							<path fill="#4B4A4A" d="M363.1,521.9h5.1c1.2,0,2.2,0.2,2.7,0.5c1,0.4,1.6,1.1,2.1,2.1c0.3,0.7,0.4,1.5,0.4,2.3
								c0,1.7-0.5,2.9-1.5,3.8c-0.4,0.4-1,0.7-1.6,0.9c-0.6,0.2-1.4,0.3-2.2,0.3H363L363.1,521.9L363.1,521.9z M365.2,529.9h2.6
								c1.2,0,2.1-0.3,2.6-0.8c0.6-0.6,0.9-1.4,0.9-2.3s-0.3-1.8-0.9-2.3c-0.3-0.3-0.7-0.5-1.1-0.6c-0.4-0.1-1-0.2-1.6-0.2h-2.6
								V529.9z"/>
							<path fill="#4B4A4A" d="M382.5,529.3h-4.7l-1.1,2.4h-2l4.7-9.8h1.6l4.9,9.8h-2.1L382.5,529.3z M382,527.9l-1.9-3.1l-1.8,3.1
								H382z"/>
							<path fill="#4B4A4A" d="M396.5,523.2l-0.9,1.5c-0.5-0.4-1.1-0.7-1.8-0.9c-0.7-0.2-1.4-0.3-2.1-0.3c-0.6,0-1.1,0.1-1.6,0.3
								c-0.7,0.2-1.1,0.6-1.1,1c0,0.3,0.2,0.5,0.5,0.6s1,0.2,1.9,0.3l1.4,0.1c1.2,0.1,2.2,0.3,2.7,0.7c0.3,0.2,0.6,0.5,0.8,0.9
								c0.3,0.5,0.4,1,0.4,1.5c0,1-0.4,1.8-1.3,2.3c-0.9,0.6-2,0.8-3.4,0.8c-1.6,0-3-0.4-4.6-1.3l0.6-1.5c0.5,0.3,1.1,0.5,1.8,0.7
								c0.7,0.2,1.5,0.3,2.2,0.3c0.6,0,1.2-0.1,1.8-0.3c0.7-0.2,1-0.5,1-1c0-0.4-0.2-0.6-0.7-0.8c-0.3-0.1-0.8-0.2-1.6-0.2l-1.4-0.1
								c-0.8-0.1-1.3-0.1-1.7-0.2c-0.4-0.1-0.7-0.2-1-0.4c-0.4-0.2-0.6-0.6-0.8-1c-0.2-0.4-0.3-0.9-0.3-1.4c0-1.1,0.4-1.9,1.3-2.4
								c0.8-0.5,1.9-0.8,3-0.8c0.7,0,1.4,0.1,2.1,0.3C394.7,522.1,395.6,522.5,396.5,523.2z"/>
							<path fill="#4B4A4A" d="M407.1,527.5h-5.8v4.3h-2.1V522h2.1v3.8h5.8V522h2.1v9.8h-2.1V527.5z"/>
							<path fill="#4B4A4A" d="M420.2,526.4c0.7,0.2,1.1,0.5,1.3,0.7c0.4,0.4,0.6,1,0.6,1.7c0,1-0.4,1.7-1.1,2.2
								c-0.6,0.5-1.5,0.7-2.5,0.7h-6.3v-9.8h6.2c1.2,0,2.1,0.2,2.5,0.7c0.6,0.5,0.9,1.1,0.9,1.9c0,0.5-0.1,0.9-0.3,1.2
								C421.4,525.8,420.9,526.1,420.2,526.4z M414.3,525.5h3.7c0.6,0,1-0.1,1.3-0.2c0.3-0.1,0.4-0.4,0.4-0.8c0-0.4-0.1-0.6-0.4-0.8
								c-0.3-0.2-0.7-0.2-1.3-0.2h-3.7V525.5z M414.3,529.9h3.8c1.3,0,2-0.4,2-1.3s-0.7-1.3-2-1.3h-3.8V529.9z"/>
							<path fill="#4B4A4A" d="M424.4,521.9h5.1c1.2,0,2.2,0.2,2.7,0.5c1,0.4,1.6,1.1,2.1,2.1c0.3,0.7,0.4,1.5,0.4,2.3
								c0,1.7-0.5,2.9-1.5,3.8c-0.4,0.4-1,0.7-1.6,0.9c-0.6,0.2-1.4,0.3-2.2,0.3h-5.1L424.4,521.9L424.4,521.9z M426.5,529.9h2.6
								c1.2,0,2.1-0.3,2.6-0.8c0.6-0.6,0.9-1.4,0.9-2.3s-0.3-1.8-0.9-2.3c-0.3-0.3-0.7-0.5-1.1-0.6c-0.4-0.1-1-0.2-1.6-0.2h-2.6
								V529.9z"/>
							<path fill="#58BDEC" d="M447.2,529.1c0.4,0,0.7,0.1,0.9,0.4c0.3,0.3,0.4,0.6,0.4,1.1c0,0.4-0.1,0.7-0.4,1
								c-0.3,0.3-0.6,0.4-0.9,0.4c-0.4,0-0.7-0.1-0.9-0.4c-0.3-0.3-0.4-0.6-0.4-1c0-0.4,0.1-0.7,0.4-1
								C446.5,529.2,446.8,529.1,447.2,529.1z"/>
							<path fill="#58BDEC" d="M453.5,531.7h-2.1v-9.8h2.1V531.7z"/>
							<path fill="#58BDEC" d="M461.5,521.7c1.6,0,2.7,0.4,3.8,1.2c1.2,1,1.9,2.2,1.9,4c0,1.6-0.6,2.8-1.9,3.8
								c-1,0.8-2.2,1.2-3.8,1.2c-1.6,0-2.8-0.4-3.8-1.2c-1.2-1-1.9-2.2-1.9-3.9c0-1.7,0.6-2.9,1.9-3.9
								C458.7,522.1,460,521.7,461.5,521.7z M461.5,523.6c-1.1,0-1.9,0.3-2.5,1c-0.6,0.6-0.9,1.4-0.9,2.2c0,0.9,0.3,1.7,0.9,2.2
								c0.7,0.7,1.6,1,2.6,1c1.1,0,1.9-0.3,2.5-1c0.6-0.6,0.9-1.4,0.9-2.2c0-1-0.3-1.8-0.9-2.3C463.4,523.9,462.5,523.6,461.5,523.6
								z"/>
						</g>
					</g>
					<g>
						<rect x="530.3" y="480.8" fill="#C6C6C6" width="10.6" height="30.3"/>
						<polygon fill="#9D9D9C" points="526.2,480.8 535.6,465.5 545,480.8 						"/>
						<polygon fill="#706F6F" points="535.6,483.7 532.8,491 535.6,491 538.4,491 						"/>
					</g>
					<path fill="#EDEDED" d="M547.8,433.1c0.2-0.5,0.3-1.1,0.3-1.7c0-3-2.4-5.6-5.6-5.6c-1.3,0-2.4,0.4-3.3,1.2
						c-1.5-1.7-3.5-2.7-5.9-2.7c-4.1,0-7.4,3.1-7.7,7.1c-4.3,1.1-7.5,5-7.5,9.7c0,2.8,1.2,5.3,3,7.1c-0.2,0.5-0.2,1.1-0.2,1.7
						c0,3,2.4,5.6,5.6,5.6c1,0,1.9-0.2,2.6-0.7c1.3,2.4,3.9,4.1,6.8,4.1c4.3,0,7.7-3.5,7.7-7.7c0-0.5,0-0.9-0.1-1.4
						c0.4,0,0.7,0.1,1.1,0.1c4.8,0,8.7-3.9,8.7-8.7C553.2,437.6,550.9,434.5,547.8,433.1z"/>
				</g>
			</g>
			<polygon fill="#9D9D9C" points="418.6,289.5 233.4,289.5 339.5,395.9 497.7,395.9 603.9,289.5 			"/>
			<rect x="233.4" y="289.5" fill="#706F6F" width="370.5" height="7.8"/>
		</g>
	</g>
	<path fill="#95D600" d="M231.5,157.6l1.6,6.1c0.1,0.4,0.1,0.7,0,0.9c-0.1,0.2-0.2,0.3-0.4,0.3c-0.2,0.1-0.3,0-0.5-0.1
		c-0.1-0.1-0.3-0.4-0.4-0.8l-0.1-0.4l-2,0.5v0.2c0.2,0.9,0.6,1.5,1.1,1.9c0.5,0.4,1.3,0.4,2.2,0.2c0.9-0.2,1.6-0.6,1.9-1.2
		c0.4-0.6,0.4-1.4,0.1-2.3l-1.5-5.8L231.5,157.6L231.5,157.6z M236.6,165.2l2.2-0.6l-0.8-3.2l0.8-0.2c0.9-0.2,1.6-0.6,1.9-1.2
		c0.4-0.6,0.4-1.3,0.2-2.2c-0.2-0.8-0.6-1.4-1.1-1.7c-0.5-0.3-1.2-0.5-2.1-0.3l-3.3,0.9L236.6,165.2L236.6,165.2z M245.1,159.7
		l0.8-0.2c0.2,0.7,0.2,1.2,0.2,1.5c-0.1,0.3-0.2,0.4-0.5,0.5c-0.2,0.1-0.4,0-0.6-0.1s-0.3-0.4-0.4-0.9c-0.1-0.4-0.3-1-0.5-1.8
		c-0.2-0.8-0.3-1.4-0.4-1.8c-0.1-0.4-0.1-0.8,0-1c0.1-0.2,0.2-0.3,0.5-0.4c0.1,0,0.3,0,0.4,0c0.1,0,0.2,0.1,0.3,0.2
		c0.1,0.1,0.1,0.2,0.2,0.4c0.1,0.2,0.1,0.4,0.2,0.6l2.2-0.6c-0.3-1-0.7-1.7-1.3-2c-0.6-0.3-1.3-0.4-2.1-0.2c-0.9,0.2-1.5,0.6-1.9,1
		c-0.4,0.5-0.6,1.1-0.6,1.8c0,0.7,0.1,1.5,0.4,2.4c0.2,1,0.5,1.8,0.8,2.3c0.3,0.6,0.6,1.1,1.1,1.3c0.5,0.2,1,0.3,1.8,0.1
		c0.4-0.1,0.7-0.3,1.1-0.5c0.3-0.2,0.5-0.5,0.6-0.9l0.3,0.7l1.5-0.4l-1.2-4.6l-2.8,0.7V159.7L245.1,159.7z M257.6,145.5l5.3,20.6
		l20.6-5.3l14.1,55l-54.9,14.1l-19.4-75.6L257.6,145.5L257.6,145.5z M235,184.3l10.5,41l47.4-12.1l-10.5-41L235,184.3L235,184.3z
		 M237,157.8l0.4-0.1c0.3-0.1,0.5,0,0.7,0.1c0.2,0.1,0.3,0.4,0.4,0.7c0.1,0.4,0.1,0.6,0,0.9c-0.1,0.2-0.3,0.3-0.6,0.4l-0.4,0.1
		L237,157.8L237,157.8z M279.2,181l6.6,25.8l-37,9.5l-6.6-25.8L279.2,181L279.2,181z M278.1,182.9l-34.1,8.7l5.9,22.9l34.1-8.7
		L278.1,182.9L278.1,182.9z M247.5,197c-0.4-1.5,0.5-2.9,2-3.3c1.5-0.4,2.9,0.5,3.3,2c0.4,1.5-0.5,2.9-2,3.3
		C249.4,199.3,247.9,198.4,247.5,197L247.5,197z M267.8,196.9l1.4-5.3l12.2,13l-30,7.7l4.5-17.3l3.7,4l2.2-8.4L267.8,196.9
		L267.8,196.9z M260,144.9l22.9,13.6l-18.3,4.7L260,144.9L260,144.9z"/>
	<path fill="#95D600" d="M614.7,43.5l-0.9,7.8c-0.1,0.5-0.2,0.9-0.3,1c-0.2,0.2-0.3,0.2-0.6,0.2c-0.2,0-0.4-0.1-0.5-0.3
		c-0.1-0.2-0.1-0.6-0.1-1.1l0.1-0.5l-2.5-0.3v0.2c-0.1,1.2,0,2.1,0.5,2.6c0.5,0.7,1.3,1.1,2.4,1.2c1.2,0.1,2.1,0,2.7-0.5
		c0.7-0.5,1.1-1.4,1.2-2.6l0.9-7.4L614.7,43.5L614.7,43.5z M617.2,54.8l2.8,0.3l0.5-4.1l1,0.1c1.2,0.1,2.1-0.1,2.7-0.6
		c0.7-0.5,1.1-1.3,1.2-2.4c0.1-1,0-1.8-0.5-2.4c-0.4-0.7-1.2-1.1-2.2-1.3l-4.2-0.5L617.2,54.8L617.2,54.8z M629.7,52.1l1,0.1
		c-0.1,0.9-0.3,1.6-0.5,1.9c-0.2,0.3-0.5,0.4-0.8,0.4s-0.5-0.2-0.6-0.4c-0.1-0.2-0.2-0.6-0.1-1.2c0.1-0.6,0.1-1.3,0.2-2.2
		c0.1-1,0.2-1.8,0.3-2.2c0.1-0.5,0.2-0.9,0.4-1.1c0.2-0.2,0.4-0.3,0.7-0.2c0.2,0,0.3,0.1,0.4,0.2s0.2,0.2,0.2,0.4
		c0,0.2,0.1,0.3,0.1,0.6c0,0.2,0,0.5,0,0.7l2.7,0.3c0.1-1.3-0.1-2.2-0.7-2.9s-1.4-1-2.3-1.1c-1.1-0.1-2,0-2.6,0.4
		c-0.6,0.4-1.1,1-1.4,1.8c-0.3,0.8-0.5,1.9-0.7,3c-0.2,1.2-0.2,2.2-0.2,3c0,0.9,0.3,1.6,0.7,2.1c0.4,0.5,1.1,0.8,2,0.9
		c0.5,0.1,1,0,1.4-0.1c0.5-0.1,0.8-0.4,1.1-0.8v1l1.9,0.2l0.7-5.9l-3.6-0.4L629.7,52.1L629.7,52.1z M650.5,41.2l-3,26.5l26.5,3
		l-8,70.4l-70.3-8l11-96.9L650.5,41.2L650.5,41.2z M606.9,76.4l-6,52.5l60.8,6.9l6-52.5L606.9,76.4L606.9,76.4z M621.1,46.4l0.5,0.1
		c0.4,0,0.6,0.2,0.8,0.4c0.2,0.2,0.2,0.6,0.2,1c-0.1,0.5-0.2,0.8-0.4,1c-0.2,0.2-0.5,0.3-0.9,0.2l-0.5-0.1L621.1,46.4L621.1,46.4z
		 M659.9,92.2l-3.7,33.1l-47.4-5.4l3.7-33.1L659.9,92.2L659.9,92.2z M657.9,93.9l-43.8-5l-3.3,29.3l43.8,5L657.9,93.9L657.9,93.9z
		 M615.9,96.8c0.2-1.9,1.9-3.2,3.8-3c1.9,0.2,3.2,1.9,3,3.8c-0.2,1.9-1.9,3.2-3.8,3C616.9,100.3,615.7,98.7,615.9,96.8L615.9,96.8z
		 M639.6,105.6l3.9-5.6l8.5,20.6l-38.5-4.4l12.9-18.2l2.6,6.4l6.3-8.9L639.6,105.6L639.6,105.6z M653.6,41.6l20.7,26L651,64.9
		L653.6,41.6L653.6,41.6z"/>
</g>
</svg>
